<svg width="20" height="13" viewBox="0 0 20 13" fill="none" xmlns="http://www.w3.org/2000/svg">
<path fill-rule="evenodd" clip-rule="evenodd" d="M19.8852 1.55859C19.8852 0.928778 19.4101 0.418213 18.824 0.418213H17.7628C17.1767 0.418213 16.7016 0.928778 16.7016 1.55859V11.4419C16.7016 12.0717 17.1767 12.5822 17.7628 12.5822H18.824C19.4101 12.5822 19.8852 12.0717 19.8852 11.4419V1.55859ZM12.4891 2.85102H13.5503C14.1364 2.85102 14.6115 3.37384 14.6115 4.01877V11.4145C14.6115 12.0594 14.1364 12.5822 13.5503 12.5822H12.4891C11.903 12.5822 11.4278 12.0594 11.4278 11.4145V4.01877C11.4278 3.37384 11.903 2.85102 12.4891 2.85102ZM8.17939 5.48655H7.11816C6.53207 5.48655 6.05694 6.01603 6.05694 6.66917V11.3996C6.05694 12.0528 6.53207 12.5822 7.11816 12.5822H8.17939C8.76549 12.5822 9.24061 12.0528 9.24061 11.3996V6.66917C9.24061 6.01603 8.76549 5.48655 8.17939 5.48655ZM2.90565 7.91937H1.84443C1.25833 7.91937 0.783203 8.44128 0.783203 9.08509V11.4165C0.783203 12.0603 1.25833 12.5822 1.84443 12.5822H2.90565C3.49175 12.5822 3.96688 12.0603 3.96688 11.4165V9.08509C3.96688 8.44128 3.49175 7.91937 2.90565 7.91937Z" fill="black"/>
</svg>
