<svg width="17" height="15" viewBox="0 0 17 15" fill="none" xmlns="http://www.w3.org/2000/svg">
<path d="M4.59298 12.5315H7.71798L11.1945 14.844C11.5539 15.0783 12.0383 14.9846 12.2805 14.6252C12.3664 14.5002 12.4055 14.3518 12.4133 14.1955V12.5315C14.4445 12.6565 16.1945 11.1018 16.3195 9.07052C16.3274 8.92208 16.3274 8.77364 16.3195 8.6252V3.9377C16.4445 1.90645 14.8899 0.156454 12.8586 0.0314541C12.7102 0.0236416 12.5617 0.0236416 12.4133 0.0314541H4.60079C2.56954 -0.0935459 0.81954 1.46114 0.69454 3.49239C0.686728 3.64083 0.686728 3.78927 0.69454 3.9377V8.6252C0.56954 10.6565 2.12423 12.4065 4.15548 12.5315C4.30391 12.5393 4.45235 12.5393 4.60079 12.5315H4.59298Z" stroke="#111111" stroke-linecap="round" stroke-linejoin="round"/>
</svg>
