<svg width="14" height="12" viewBox="0 0 14 12" fill="none" xmlns="http://www.w3.org/2000/svg">
<path d="M3.87438 10.0252H6.37438L9.15563 11.8752C9.44313 12.0627 9.83063 11.9877 10.0244 11.7002C10.0931 11.6002 10.1244 11.4814 10.1306 11.3564V10.0252C11.7556 10.1252 13.1556 8.88141 13.2556 7.25641C13.2619 7.13766 13.2619 7.01891 13.2556 6.90016V3.15016C13.3556 1.52516 12.1119 0.125163 10.4869 0.0251632C10.3681 0.0189132 10.2494 0.0189132 10.1306 0.0251632H3.88063C2.25563 -0.0748367 0.855632 1.16891 0.755632 2.79391C0.749382 2.91266 0.749382 3.03141 0.755632 3.15016V6.90016C0.655632 8.52516 1.89938 9.92516 3.52438 10.0252C3.64313 10.0314 3.76188 10.0314 3.88063 10.0252H3.87438Z" stroke="#111111" stroke-opacity="0.7" stroke-linecap="round" stroke-linejoin="round"/>
</svg>
