<svg width="28" height="28" viewBox="0 0 28 28" fill="none" xmlns="http://www.w3.org/2000/svg">
<path fill-rule="evenodd" clip-rule="evenodd" d="M14.2673 4C14.9833 4 15.6793 4.294 16.1783 4.805C16.6763 5.319 16.9513 6.024 16.9303 6.739C16.9323 6.9 16.9853 7.086 17.0813 7.249C17.2403 7.519 17.4913 7.709 17.7893 7.787C18.0873 7.861 18.3993 7.821 18.6643 7.664C19.9443 6.933 21.5733 7.371 22.3043 8.641L22.9273 9.72C22.9433 9.749 22.9573 9.777 22.9693 9.806C23.6313 11.057 23.1893 12.632 21.9593 13.351C21.7803 13.454 21.6353 13.598 21.5353 13.772C21.3803 14.041 21.3373 14.361 21.4153 14.655C21.4953 14.955 21.6863 15.204 21.9553 15.358C22.5623 15.707 23.0153 16.295 23.1963 16.974C23.3773 17.652 23.2783 18.388 22.9253 18.995L22.2613 20.101C21.5303 21.357 19.9013 21.792 18.6343 21.06C18.4653 20.963 18.2703 20.91 18.0763 20.905H18.0703C17.7813 20.905 17.4843 21.028 17.2683 21.243C17.0493 21.462 16.9293 21.754 16.9313 22.064C16.9243 23.533 15.7293 24.721 14.2673 24.721H13.0143C11.5453 24.721 10.3503 23.527 10.3503 22.058C10.3483 21.877 10.2963 21.689 10.1993 21.526C10.0423 21.252 9.78832 21.056 9.49532 20.978C9.20432 20.9 8.88532 20.943 8.62332 21.095C7.99532 21.445 7.25632 21.53 6.58032 21.34C5.90532 21.149 5.32232 20.685 4.98032 20.07L4.35532 18.993C3.62432 17.725 4.05932 16.1 5.32532 15.368C5.68432 15.161 5.90732 14.775 5.90732 14.361C5.90732 13.947 5.68432 13.56 5.32532 13.353C4.05832 12.617 3.62432 10.988 4.35432 9.72L5.03232 8.607C5.75332 7.353 7.38332 6.911 8.65432 7.641C8.82732 7.744 9.01532 7.796 9.20632 7.798C9.82932 7.798 10.3503 7.284 10.3603 6.652C10.3563 5.955 10.6313 5.286 11.1323 4.781C11.6353 4.277 12.3033 4 13.0143 4H14.2673ZM14.2673 5.5H13.0143C12.7043 5.5 12.4143 5.621 12.1953 5.839C11.9773 6.058 11.8583 6.349 11.8603 6.659C11.8393 8.121 10.6443 9.298 9.19732 9.298C8.73332 9.293 8.28632 9.168 7.89832 8.936C7.35332 8.626 6.64132 8.817 6.32232 9.372L5.64532 10.485C5.33532 11.023 5.52532 11.734 6.07732 12.055C6.89632 12.529 7.40732 13.413 7.40732 14.361C7.40732 15.309 6.89632 16.192 6.07532 16.667C5.52632 16.985 5.33632 17.692 5.65432 18.242L6.28532 19.33C6.44132 19.611 6.69632 19.814 6.99132 19.897C7.28532 19.979 7.60932 19.944 7.87932 19.794C8.27632 19.561 8.73832 19.44 9.20232 19.44C9.43132 19.44 9.66032 19.469 9.88432 19.529C10.5603 19.711 11.1473 20.163 11.4953 20.77C11.7213 21.151 11.8463 21.596 11.8503 22.05C11.8503 22.7 12.3723 23.221 13.0143 23.221H14.2673C14.9063 23.221 15.4283 22.703 15.4313 22.064C15.4273 21.358 15.7033 20.687 16.2083 20.182C16.7063 19.684 17.4023 19.385 18.0983 19.405C18.5543 19.416 18.9933 19.539 19.3803 19.759C19.9373 20.078 20.6483 19.888 20.9703 19.338L21.6343 18.231C21.7823 17.976 21.8253 17.656 21.7463 17.361C21.6683 17.066 21.4723 16.81 21.2083 16.659C20.5903 16.303 20.1493 15.729 19.9663 15.041C19.7853 14.366 19.8843 13.629 20.2373 13.022C20.4673 12.622 20.8043 12.285 21.2083 12.053C21.7503 11.736 21.9403 11.027 21.6253 10.475C21.6123 10.453 21.6003 10.43 21.5903 10.406L21.0043 9.39C20.6853 8.835 19.9753 8.644 19.4183 8.961C18.8163 9.317 18.1003 9.419 17.4123 9.238C16.7253 9.06 16.1493 8.625 15.7903 8.011C15.5603 7.627 15.4353 7.18 15.4313 6.725C15.4403 6.383 15.3203 6.076 15.1023 5.851C14.8853 5.627 14.5803 5.5 14.2673 5.5ZM13.6452 10.9741C15.5122 10.9741 17.0312 12.4941 17.0312 14.3611C17.0312 16.2281 15.5122 17.7461 13.6452 17.7461C11.7782 17.7461 10.2592 16.2281 10.2592 14.3611C10.2592 12.4941 11.7782 10.9741 13.6452 10.9741ZM13.6452 12.4741C12.6052 12.4741 11.7592 13.3211 11.7592 14.3611C11.7592 15.4011 12.6052 16.2461 13.6452 16.2461C14.6852 16.2461 15.5312 15.4011 15.5312 14.3611C15.5312 13.3211 14.6852 12.4741 13.6452 12.4741Z" fill="black"/>
</svg>
