<svg width="100" height="78" viewBox="0 0 100 78" fill="none" xmlns="http://www.w3.org/2000/svg">
<path d="M100 0H0V77.6199H100V0Z" fill="#FEFEFF"/>
<path d="M31.6847 26.9883C31.5614 34.7428 31.6847 42.5281 31.8113 50.2791C33.4478 50.5324 35.0809 50.0908 36.714 50.0155C41.5858 49.7929 45.2627 49.9402 50.09 50.868C56.0915 49.5567 62.2232 49.7758 68.2796 50.4914L68.3823 50.5016C68.3241 42.6068 68.4713 34.7085 68.3926 26.8137L68.7041 26.8206C69.3306 26.9849 70.2174 26.5535 70.4536 27.3615C70.8028 28.5632 70.2242 49.2007 70.4022 52.3949C68.2454 52.7886 53.9381 52.2374 53.1507 52.5934C52.7638 52.7681 52.9247 53.4733 52.6748 53.7575C52.4146 54.0519 47.9571 54.0451 47.7277 53.9492C46.7486 53.5418 48.0255 52.8297 46.0672 52.5695C44.3178 52.3333 33.7697 52.7064 30.6816 52.6037C29.3566 52.4805 29.6374 52.3435 29.5621 50.173L29.5449 27.7963C29.5518 26.6015 30.3392 26.8411 31.291 26.9507L31.6847 26.9883Z" fill="#EE7D5A"/>
<path d="M68.3941 26.8138C68.4728 34.7086 68.3256 42.6069 68.3838 50.5017L68.2811 50.4914C62.2247 49.7759 56.0931 49.5568 50.0915 50.868C45.2608 49.9436 41.5873 49.793 36.7155 50.0155C35.0824 50.0909 33.4493 50.5291 31.8129 50.2792C31.6862 42.5247 31.5664 34.7429 31.6862 26.9884C31.693 26.5604 31.6006 24.1228 31.7958 24.0167C36.8593 23.7189 40.3308 23.397 45.4559 24.0407C46.976 24.2324 48.4858 24.5405 49.9751 24.9C56.1273 23.3628 62.0125 23.5306 68.2674 24.0133L68.4557 24.1913C68.418 25.0678 68.3872 25.9408 68.3975 26.8172L68.3941 26.8138Z" fill="#A0CEEA" stroke="#1B5A59" stroke-linecap="round" stroke-linejoin="round"/>
<path d="M37.2803 33.8287C38.4033 33.7602 46.7534 33.904 47.0273 34.4826C47.0444 34.5237 47.0444 35.318 47.0273 35.3556C46.9143 35.6124 42.2206 34.9893 41.5632 34.9619C39.4372 34.8763 37.2906 34.9756 35.1816 35.2256V34.0033C35.8835 34.0341 36.5853 33.8698 37.2803 33.8287Z" fill="#3A97C9"/>
<path d="M57.8217 33.8288C58.7358 33.7843 64.5046 33.8288 64.9017 34.0034C65.0968 34.1096 65.0558 35.0476 65.0318 35.0956C64.8914 35.3969 61.2624 34.8525 58.4311 34.9655C56.5686 35.0374 53.4018 35.6434 53.1861 35.4893C53.1177 35.4414 53.1074 34.4451 53.1861 34.3527C53.3368 34.1746 57.2876 33.8528 57.8183 33.8288H57.8217Z" fill="#3A97C9"/>
<path d="M58.2604 37.9372C59.0444 37.9064 64.8508 37.9372 65.0357 38.2419C65.0597 38.283 65.0562 39.1594 65.0357 39.2039C64.9124 39.4881 61.3074 38.9985 58.8732 39.0738C56.8909 39.1354 53.4228 39.7619 53.19 39.5976C53.1216 39.5497 53.1113 38.5466 53.19 38.461C53.3612 38.2727 57.6852 37.9611 58.2604 37.9372Z" fill="#3A97C9"/>
<path d="M37.7176 37.9371C38.7584 37.8824 46.8039 38.0775 47.0264 38.591C47.0435 38.6321 47.0435 39.4264 47.0264 39.4641C46.9066 39.7345 41.7986 39.0909 41.1275 39.0704C38.2004 38.9813 35.4273 39.5051 35.1842 39.334C35.1157 39.286 35.1054 38.2966 35.1842 38.1973C35.2629 38.098 37.4198 37.9508 37.7176 37.9337V37.9371Z" fill="#3A97C9"/>
<path d="M37.0205 29.7205C38.1263 29.6418 46.7675 29.8095 47.0277 30.2888C47.079 30.3813 47.2468 31.3262 46.5484 31.381C46.3156 31.3981 43.1111 30.9051 41.9162 30.8571C39.1499 30.7442 35.4833 31.1892 35.1854 31.0318C35.093 30.9804 34.9218 30.0149 35.1854 29.8951C35.8017 29.9294 36.4145 29.7616 37.0205 29.7205Z" fill="#3A97C9"/>
<path d="M57.9105 43.5312C60.2386 43.4285 62.5837 43.5825 64.9049 43.7058C65.5623 45.5579 64.2989 44.7157 62.457 44.6678C61.1937 44.6336 59.6908 44.6199 58.4377 44.6678C56.4555 44.7466 53.4085 45.3457 53.1928 45.1916C53.1209 45.1403 53.0422 43.9489 53.3674 43.9694C54.8806 43.877 56.3973 43.5996 57.914 43.5312H57.9105Z" fill="#3A97C9"/>
<path d="M64.8525 30.5659C61.0249 29.9326 57.1562 30.4016 53.3184 30.6926" stroke="#3A97C9" stroke-linecap="square" stroke-linejoin="round"/>
<path d="M50.0859 25.2627V50.5255" stroke="#1B5A59" stroke-linecap="round" stroke-linejoin="round"/>
<path d="M31.291 26.9504C30.3392 26.8409 29.5518 26.6012 29.5449 27.796L29.5621 50.1727C29.6374 52.3398 29.3566 52.4802 30.6816 52.6035C33.7697 52.7062 44.3178 52.333 46.0672 52.5692C48.0255 52.8328 46.7486 53.545 47.7277 53.9489C47.9571 54.0448 52.4146 54.0482 52.6748 53.7572C52.9281 53.4731 52.7638 52.7712 53.1507 52.5932C53.9347 52.2371 68.2419 52.7849 70.4022 52.3946C70.2242 49.2004 70.8062 28.5629 70.4536 27.3612C70.2174 26.5567 69.3306 26.9881 68.7041 26.8203" stroke="#1B5A59" stroke-linecap="round" stroke-linejoin="round"/>
<path d="M46.6979 45.1025C42.7676 44.5753 38.7962 44.2946 34.9104 44.9142L34.7734 43.9625C38.7893 43.3223 42.8669 43.6201 46.8245 44.1473C47.4476 44.2398 47.3278 45.1744 46.6979 45.0991V45.1025Z" fill="#3A98C9"/>
</svg>
