<svg width="100" height="78" viewBox="0 0 100 78" fill="none" xmlns="http://www.w3.org/2000/svg">
<path d="M100 0H0V77.6199H100V0Z" fill="#FEFEFF"/>
<path d="M59.6323 49.5258C59.6118 49.5326 59.5878 49.5361 59.5673 49.5429C58.6361 49.762 41.3435 49.7107 40.4054 49.5189C40.1829 49.4744 39.9808 49.3888 39.772 49.3033C36.3347 47.903 33.7431 43.9932 32.918 40.4738L66.9896 40.3848C66.2947 43.3291 64.6103 46.0748 62.2343 47.9715C61.7207 48.3823 60.2075 49.3751 59.6323 49.5258Z" fill="#E87046"/>
<path d="M58.3005 28.5117C58.9784 28.7103 59.4269 28.9191 60.0363 29.2615C60.0636 29.2752 60.091 29.2889 60.115 29.3026C60.5464 29.5525 60.7826 29.71 61.1797 30.0147C61.6145 30.3502 62.2993 30.9425 62.6211 31.3567C62.6416 31.3807 62.6622 31.4047 62.6793 31.4286C63.4838 32.5002 64.172 34.2326 64.3089 35.5712L64.3295 35.9444C62.5321 35.9204 58.9373 36.095 58.2149 36.0128C56.8865 35.8622 56.6024 35.4103 55.9416 35.4719C54.0415 36.2217 50.4262 35.9512 47.8859 35.9752L47.9441 35.5712C48.218 34.2805 48.5432 33.2911 49.2348 32.1544C51.1691 28.9773 54.6749 27.4504 58.3005 28.5117Z" fill="#EDBF5A"/>
<path d="M49.2354 32.1546C48.5438 33.2878 48.222 34.2806 47.9447 35.5713L47.8865 35.9753C47.8557 35.9753 47.8283 35.9753 47.7975 35.9753C43.6173 36.0198 39.4336 35.9103 35.25 36.0027V35.5679C36.3284 28.7721 44.5793 26.8617 48.941 31.9697L49.2354 32.1546Z" fill="#B0D6BE"/>
<path d="M59.6326 49.5259C59.612 49.5327 59.5881 49.5362 59.5675 49.543V49.9162C59.5812 51.3199 58.8828 52.0354 57.5168 52.275C56.7704 52.4051 43.1411 52.4051 42.3947 52.275C41.039 52.0388 40.255 51.3609 40.3611 49.9162L40.4056 49.519C41.3437 49.7108 58.6329 49.7621 59.5675 49.543C59.5915 49.5362 59.612 49.5327 59.6326 49.5259Z" fill="#E87046"/>
<path d="M62.6792 31.4286C62.6621 31.4046 62.6381 31.3807 62.621 31.3567C62.2992 30.9424 61.6145 30.3502 61.1797 30.0146L61.4159 29.7373L67.777 21.3016L68.0303 21.2673L69.4237 22.2705L69.4614 22.5169L62.9189 31.0862L62.621 31.3601C62.6416 31.3841 62.6621 31.408 62.6792 31.432V31.4286Z" fill="#E87046"/>
<path d="M60.1153 29.3027C60.0879 29.289 60.0605 29.2754 60.0365 29.2617C59.4271 28.9193 58.9787 28.7105 58.3008 28.5119L58.4377 28.1148L63.2993 19.3777C63.5286 19.1963 65.0795 20.2131 65.0384 20.5178L60.2728 28.9912L60.0365 29.2651C60.0639 29.2788 60.0913 29.2925 60.1153 29.3062V29.3027Z" fill="#E87046"/>
<path d="M58.4355 28.1148L63.2971 19.3777C63.5264 19.1963 65.0773 20.2131 65.0363 20.5178L60.2706 28.9912" stroke="#385255" stroke-linecap="round" stroke-linejoin="round"/>
<path d="M64.3082 35.5712C64.1712 34.2326 63.4797 32.5002 62.6786 31.4286C62.6614 31.4047 62.6375 31.3807 62.6204 31.3567C62.2985 30.9425 61.6138 30.3502 61.179 30.0147C60.7819 29.71 60.5491 29.5525 60.1143 29.3026C60.0869 29.2889 60.0595 29.2752 60.0355 29.2615C59.4261 28.9191 58.9776 28.7103 58.2998 28.5117C54.6742 27.4504 51.1684 28.9773 49.2341 32.1544C48.5425 33.2877 48.2207 34.2805 47.9434 35.5712" stroke="#385255" stroke-linecap="round" stroke-linejoin="round"/>
<path d="M61.4141 29.7376L67.7751 21.3018L68.025 21.2642L69.4184 22.2673L69.4561 22.5138L62.917 31.0831" stroke="#385255" stroke-linecap="round" stroke-linejoin="round"/>
<path d="M35.2441 35.5713C36.326 28.7755 44.5769 26.8651 48.9385 31.9731" stroke="#385255" stroke-linecap="round" stroke-linejoin="round"/>
<path d="M39.771 49.2999C36.3337 47.8997 33.7421 43.9899 32.917 40.4705C32.7526 39.7618 32.335 36.6874 32.6739 36.1875C32.9307 35.8109 34.3001 36.0232 35.2484 36.0027C39.4321 35.9102 43.6157 36.0198 47.7959 35.9753C47.8267 35.9753 47.8541 35.9753 47.885 35.9753C50.4253 35.9479 54.0406 36.2184 55.9407 35.472C56.6015 35.4104 56.8856 35.8657 58.214 36.0129C58.9363 36.0951 62.5311 35.9205 64.3285 35.9445C64.7496 35.9513 67.1701 35.8589 67.2865 36.054C67.355 37.6528 67.3618 38.8134 66.9886 40.3849C66.2937 43.3292 64.6093 46.0749 62.2333 47.9716C61.7197 48.3824 60.2065 49.3753 59.6313 49.5259C59.6108 49.5327 59.5868 49.5362 59.5663 49.543C58.6351 49.7621 41.3425 49.7108 40.4044 49.519C40.1819 49.4745 39.9799 49.3889 39.771 49.3034V49.2999Z" stroke="#385255" stroke-linecap="round" stroke-linejoin="round"/>
<path d="M61.9381 35.602C60.6508 28.7616 51.5475 28.7685 50.291 35.6123" stroke="#385255" stroke-linecap="round" stroke-linejoin="round"/>
<path d="M47.7645 34.2807C44.9948 29.8266 38.9795 30.5319 37.4629 35.5543" stroke="#385255" stroke-linecap="round" stroke-linejoin="round"/>
<path d="M59.5979 35.5884C58.5331 31.8053 53.7435 31.7334 52.6582 35.5199" stroke="#385255" stroke-linecap="round" stroke-linejoin="round"/>
<path d="M45.7449 35.5131C44.4987 32.9865 41.1333 32.9797 39.9316 35.52" stroke="#385255" stroke-linecap="round" stroke-linejoin="round"/>
<path d="M32.9551 38.7246H66.9583" stroke="#385255" stroke-linecap="round" stroke-linejoin="round"/>
<path d="M40.3592 49.9128C40.253 51.3576 41.037 52.0355 42.3928 52.2717C43.1391 52.4018 56.7685 52.4018 57.5148 52.2717C58.8808 52.0321 59.5758 51.3165 59.5621 49.9128" stroke="#385255" stroke-linecap="round" stroke-linejoin="round"/>
</svg>
