<svg width="29" height="29" viewBox="0 0 29 29" fill="none" xmlns="http://www.w3.org/2000/svg">
<path d="M9.57812 24.3015H8.875C3.25 24.3015 0.4375 22.8953 0.4375 15.864V8.83276C0.4375 3.20776 3.25 0.395264 8.875 0.395264H20.125C25.75 0.395264 28.5625 3.20776 28.5625 8.83276V15.864C28.5625 21.489 25.75 24.3015 20.125 24.3015H19.4219C18.9859 24.3015 18.5641 24.5125 18.2969 24.864L16.1875 27.6765C15.5969 28.6046 14.3594 28.8859 13.4312 28.2953C13.1781 28.1406 12.9672 27.9296 12.8125 27.6765L10.7031 24.864C10.4219 24.5265 10.0141 24.3296 9.57812 24.3015Z" stroke="#606060" stroke-width="1.5" stroke-linecap="round" stroke-linejoin="round"/>
<path d="M20.125 13.0515H20.1391" stroke="#606060" stroke-width="2" stroke-linecap="round" stroke-linejoin="round"/>
<path d="M14.5 13.0515H14.5141" stroke="#606060" stroke-width="2" stroke-linecap="round" stroke-linejoin="round"/>
<path d="M8.875 13.0515H8.88906" stroke="#606060" stroke-width="2" stroke-linecap="round" stroke-linejoin="round"/>
</svg>
