<svg width="113" height="117" viewBox="0 0 113 117" fill="none" xmlns="http://www.w3.org/2000/svg">
<path d="M112.862 72.3267L58.373 0.696289L0.352428 44.8326L54.8418 116.463L112.862 72.3267Z" fill="#FEFEFF"/>
<path d="M68.2857 51.4443C66.2392 52.6256 59.8299 57.7218 57.1731 59.7313C57.1065 59.7819 57.03 59.8246 56.9634 59.8752C56.7587 60.031 56.5577 60.1916 56.353 60.3474C54.7454 61.5587 53.1601 62.7994 51.5066 63.945L51.4158 63.9637C51.4404 64.1076 51.4511 64.2544 51.4484 64.3996C50.7715 64.3648 50.9094 65.7039 49.2832 65.8338C47.6613 65.9642 46.9581 64.0679 48.0137 62.9435C48.4635 62.462 49.1324 62.4332 48.8996 62.0102C48.8698 62.0135 48.8407 62.0125 48.8109 62.0158C48.8407 62.0125 48.8705 62.0091 48.8996 62.0102C49.3184 61.982 49.7295 62.0603 50.1006 62.2348L50.1727 62.1915C51.3591 61.1381 52.607 60.1656 53.86 59.1892C54.2273 58.902 54.6015 58.629 54.9707 58.3443C57.8047 56.1536 64.8873 51.0291 66.6504 49.2892L66.8378 49.5144L68.1231 51.2041L68.2883 51.4424L68.2857 51.4443Z" fill="#A2D6DA"/>
<path d="M53.8572 59.1868C52.4451 57.1871 50.4242 56.9204 48.6017 58.8371C47.7589 59.726 48.0826 61.0013 47.2074 61.4812C46.2933 61.9791 37.685 61.0827 39.2046 68.6568C39.4729 69.9974 40.0937 70.4736 39.3906 70.6911C37.8294 68.2511 37.1355 64.8534 39.6059 62.5405C42.0527 60.2495 45.3877 61.0807 46.9177 60.2188C48.1682 59.5153 47.9344 57.5562 49.9001 56.5448C51.9461 55.4955 53.5018 56.7705 54.7884 58.1804L54.9679 58.342C54.5987 58.6267 54.2246 58.8997 53.8572 59.1868Z" fill="#F6C3B9"/>
<path d="M68.2852 51.4443L68.12 51.206L66.8347 49.5163L66.6472 49.2911C67.1196 48.8234 67.4203 48.2308 67.8682 47.7468L71.2006 45.2234C71.5243 45.0275 73.282 45.7926 73.3662 45.9299L73.5323 48.0761L70.1633 50.6311C69.5543 50.9512 68.8799 51.1003 68.2826 51.4462L68.2852 51.4443Z" fill="#F7EE9A"/>
<path d="M53.0796 67.0962C53.0528 67.1088 53.0211 67.1097 52.9944 67.1223C51.272 67.9331 51.4206 72.2179 48.1435 74.0334C44.6711 75.9586 41.1727 73.4786 39.3897 70.6887C40.0929 70.4712 39.472 69.995 39.2037 68.6544C41.7148 73.1398 46.1901 75.6239 50.0396 70.4927C50.6155 69.7256 52.4242 65.7674 52.9925 67.1199C53.0193 67.1072 53.0509 67.1064 53.0777 67.0938L53.0796 67.0962Z" fill="#CD8C81"/>
<path d="M53.493 66.9598C52.5369 66.096 54.9938 66.8402 56.6197 64.8988C57.7963 63.4927 56.6277 62.0627 57.3053 61.9072C58.5406 64.8854 56.4508 66.7693 53.4974 66.9603L53.493 66.9598Z" fill="#CD8C81"/>
<path d="M57.3026 61.905C56.6268 62.0629 57.7935 63.4905 56.6169 64.8965C54.9954 66.8385 52.5341 66.0937 53.4902 66.9576C53.351 66.9976 53.2118 67.0377 53.0768 67.0939C53.0501 67.1065 53.0184 67.1074 52.9916 67.12C52.4234 65.7676 50.6146 69.7257 50.0387 70.4929C46.1892 75.6241 41.714 73.14 39.2028 68.6546C37.6832 61.0805 46.2891 61.9788 47.2057 61.479C48.0827 61.0015 47.7546 59.7257 48.6 58.8348C50.4225 56.9181 52.4434 57.1849 53.8555 59.1846C52.6025 60.161 51.3571 61.1316 50.1682 62.1869L50.0961 62.2302C49.725 62.0557 49.3139 61.9774 48.8951 62.0056C48.8653 62.0089 48.8362 62.0078 48.8064 62.0112C44.4899 62.4337 46.9331 69.0498 50.4237 66.3944C51.0533 65.9155 51.4359 65.1599 51.4465 64.393C51.4473 64.2454 51.4385 64.101 51.4139 63.9571L51.5046 63.9384C53.1601 62.7953 54.7434 61.5521 56.351 60.3408L56.4549 60.5676C56.7931 60.8369 57.1284 61.4955 57.2963 61.902L57.3026 61.905Z" fill="#F3A193"/>
<path d="M42.2205 65.5689C42.7134 66.3709 45.8905 70.2181 45.9832 70.5153C46.1737 71.1215 45.4284 71.5916 44.9775 71.2804C44.7335 71.1137 41.5183 66.8658 41.3795 66.6036C40.984 65.8553 41.9566 65.4716 42.2205 65.5689Z" fill="#A2D6DA" stroke="#5E5E5F" stroke-linecap="round" stroke-linejoin="round"/>
<path d="M48.8104 62.0159C48.8402 62.0126 48.8701 62.0093 48.8992 62.0104C49.132 62.4333 48.4624 62.4665 48.0133 62.9437C46.9577 64.068 47.6609 65.9643 49.2827 65.8339C50.9116 65.7021 50.7711 64.3649 51.448 64.3997C51.4393 65.169 51.0548 65.9222 50.4252 66.4011C46.9346 69.0565 44.4933 62.4429 48.8079 62.0179L48.8104 62.0159Z" fill="#6DACB5"/>
<path d="M50.1735 62.1873C51.3599 61.1339 52.6078 60.1614 53.8608 59.185C54.2281 58.8978 54.6023 58.6248 54.9715 58.3401C57.8055 56.1494 64.8881 51.0249 66.6512 49.285C67.1235 48.8173 67.4242 48.2247 67.8721 47.7407L71.2046 45.2173C71.5282 45.0214 73.2859 45.7865 73.3701 45.9238L73.5362 48.07L70.1672 50.625C69.5582 50.945 68.8838 51.0942 68.2865 51.4401C66.2399 52.6214 59.8307 57.7176 57.1739 59.727" stroke="#5A5D5C" stroke-linecap="round" stroke-linejoin="round"/>
<path d="M56.963 59.8755C56.7583 60.0312 56.5573 60.1918 56.3525 60.3476C54.7449 61.5589 53.1597 62.7996 51.5062 63.9452" stroke="#5A5D5C" stroke-linecap="round" stroke-linejoin="round"/>
<path d="M70.7949 45.9072L70.9385 46.096" stroke="#5A5D5C" stroke-linecap="round" stroke-linejoin="round"/>
<path d="M71.315 49.2942L71.1913 48.9935C71.1036 48.8357 70.785 48.5708 71.0158 48.4069C71.2922 48.2392 71.5003 48.619 71.6416 48.7942L71.7654 49.0949C71.8823 49.3814 71.4371 49.5769 71.315 49.2942Z" fill="#5A5D5C"/>
<path d="M72.4141 48.0359L73.3188 49.2253" stroke="#5A5D5C" stroke-linecap="round" stroke-linejoin="round"/>
<path d="M69.7148 46.6323L70.0422 47.2698" stroke="#5A5D5C" stroke-linecap="round" stroke-linejoin="round"/>
<path d="M68.0742 46.7922L68.9463 48.1033" stroke="#5A5D5C" stroke-linecap="round" stroke-linejoin="round"/>
<path d="M70.4969 49.9909L70.2427 49.7894" stroke="#5A5D5C" stroke-linecap="round" stroke-linejoin="round"/>
<path d="M68.1192 51.2063L66.832 49.5142" stroke="#5A5D5C" stroke-linecap="round" stroke-linejoin="round"/>
<path d="M65.4453 50.6699L66.6355 52.2345" stroke="#5A5D5C" stroke-linecap="round" stroke-linejoin="round"/>
<path d="M63.7461 51.9624L64.9363 53.527" stroke="#5A5D5C" stroke-linecap="round" stroke-linejoin="round"/>
<path d="M62.1113 53.2065L63.3015 54.7711" stroke="#5A5D5C" stroke-linecap="round" stroke-linejoin="round"/>
<path d="M60.4141 54.4971L61.6043 56.0617" stroke="#5A5D5C" stroke-linecap="round" stroke-linejoin="round"/>
<path d="M58.7793 55.7412L59.9695 57.3058" stroke="#5A5D5C" stroke-linecap="round" stroke-linejoin="round"/>
<path d="M57.2129 56.9326L58.4031 58.4972" stroke="#5A5D5C" stroke-linecap="round" stroke-linejoin="round"/>
<path d="M55.5781 58.1765L56.7683 59.7411" stroke="#5A5D5C" stroke-linecap="round" stroke-linejoin="round"/>
<path d="M56.4591 60.5725C56.7972 60.8417 57.1326 61.5003 57.3004 61.9068C58.5358 64.885 56.446 66.769 53.4925 66.9599C53.3534 67 53.2141 67.0401 53.0792 67.0963C53.0524 67.1089 53.0207 67.1098 52.994 67.1224C51.2716 67.9332 51.4202 72.218 48.1431 74.0334C44.6707 75.9587 41.1723 73.4787 39.3893 70.6887C37.8281 68.2488 37.1342 64.851 39.6047 62.5381C42.0514 60.2472 45.3864 61.0783 46.9164 60.2164C48.167 59.5129 47.9331 57.5538 49.8988 56.5424C51.9448 55.4932 53.5005 56.7681 54.7872 58.1781" stroke="#5A5D5C" stroke-linecap="round" stroke-linejoin="round"/>
<path d="M54.0078 59.3699L55.198 60.9345" stroke="#5A5D5C" stroke-linecap="round" stroke-linejoin="round"/>
<path d="M52.4434 60.5613L53.6335 62.1259" stroke="#5A5D5C" stroke-linecap="round" stroke-linejoin="round"/>
<path d="M50.4278 66.3992C51.0573 65.9203 51.44 65.1646 51.4506 64.3978C51.4513 64.2501 51.4425 64.1058 51.4179 63.9619C51.2897 63.2038 50.8009 62.5613 50.1046 62.2354C49.7335 62.0609 49.3224 61.9826 48.9036 62.0109C48.8738 62.0142 48.8447 62.0131 48.8149 62.0164C44.4984 62.439 46.9416 69.055 50.4322 66.3997L50.4278 66.3992Z" stroke="#5A5D5C" stroke-linecap="round" stroke-linejoin="round"/>
</svg>
