<svg width="31" height="27" viewBox="0 0 31 27" fill="none" xmlns="http://www.w3.org/2000/svg">
<path d="M22.5312 26.1562V23.3438C22.5312 20.2359 20.0141 17.7188 16.9062 17.7188H5.65625C2.54844 17.7188 0.03125 20.2359 0.03125 23.3438V26.1562" stroke="#606060" stroke-width="2" stroke-linecap="round" stroke-linejoin="round"/>
<path d="M11.2812 12.0938C14.3879 12.0938 16.9062 9.57535 16.9062 6.46875C16.9062 3.36215 14.3879 0.84375 11.2812 0.84375C8.17465 0.84375 5.65625 3.36215 5.65625 6.46875C5.65625 9.57535 8.17465 12.0938 11.2812 12.0938Z" stroke="#606060" stroke-width="2" stroke-linecap="round" stroke-linejoin="round"/>
<path d="M30.9688 26.1563V23.3438C30.9688 20.7844 29.225 18.5485 26.75 17.9016" stroke="#606060" stroke-width="2" stroke-linecap="round" stroke-linejoin="round"/>
<path d="M21.125 1.02661C24.1344 1.80005 25.9484 4.86567 25.175 7.87505C24.6687 9.85786 23.1078 11.4188 21.125 11.925" stroke="#606060" stroke-width="2" stroke-linecap="round" stroke-linejoin="round"/>
</svg>
