<svg width="11" height="25" viewBox="0 0 11 25" fill="none" xmlns="http://www.w3.org/2000/svg">
<path d="M0.235179 14.7362C0.226278 13.2719 0.310846 11.7943 0.324198 10.3256C0.33755 8.79453 -0.0585645 2.12295 0.702502 1.32183C1.36565 0.623072 4.46778 0.818903 4.77043 0.979128C6.07003 1.67343 5.73623 3.1021 5.78964 4.28153L6.24806 4.27263C7.94822 4.45511 10.1647 3.56052 10.6809 5.75026C10.8412 6.42676 10.8946 18.9821 10.6142 19.6141C9.90207 21.2164 7.65447 20.5844 6.2525 20.62L5.78073 20.6778C5.73623 21.7193 6.02997 23.2459 5.00186 23.9313C4.76153 24.0915 0.773717 25.0217 0.275241 22.6807C0.190678 22.2934 0.248536 15.9112 0.239634 14.7362H0.235179Z" fill="#949AAA"/>
</svg>
