<svg width="145" height="202" viewBox="0 0 145 202" fill="none" xmlns="http://www.w3.org/2000/svg">
<path d="M103.723 190.883C89.5628 196.68 55.4031 196.85 41.2383 191.09C42.3137 189.845 42.9458 188.204 44.4646 187.34C62.4784 198.812 68.1057 180.388 53.8371 178.803L53.106 178.072C51.4079 174.293 50.0117 170.345 49.0447 166.303C64.1624 172.756 80.4734 173.284 95.2844 165.68C95.4778 165.855 95.5816 165.916 95.5957 166.199C95.624 166.812 92.2703 176.421 91.6383 177.864C90.3128 179.553 84.629 179.657 83.9309 184.114C82.6196 192.468 93.7467 193.222 100.492 187.133C100.737 187.161 103.275 190.402 103.718 190.883H103.723Z" fill="#B39EB0"/>
<path d="M103.722 190.883C103.274 190.402 100.741 187.161 100.496 187.133C93.7553 193.222 82.6282 192.468 83.9347 184.114C84.6328 179.657 90.3167 179.553 91.6421 177.864C92.2742 176.421 95.6279 166.817 95.5996 166.199C95.5855 165.912 95.4817 165.85 95.2883 165.68C80.4773 173.289 64.1662 172.76 49.0486 166.303C50.0156 170.341 51.4118 174.293 53.1099 178.072L53.841 178.803C68.1096 180.392 62.4823 198.812 44.4685 187.34C42.945 188.204 42.3129 189.845 41.2421 191.09C39.4356 193.18 33.1716 200.878 30.931 201.298C24.6293 202.482 19.6199 194.892 29.8886 187.553C26.95 188.293 14.1578 196.887 13.2238 197.133C9.07295 198.222 5.01643 196.345 5.41265 191.614C5.96924 184.958 14.771 185.572 18.9501 182.449C14.6672 182.449 9.35125 185.27 7.80883 185.468C-1.67213 186.689 -0.153286 176.548 4.26644 174.638C6.36074 173.732 21.7991 173.166 26.0302 171.827C19.8416 162.864 5.22869 138.436 5.62019 128.294C5.77113 124.37 8.11542 118.856 12.5965 118.403C17.3369 117.922 22.9548 122.941 24.4689 122.568C29.148 115.351 35.1809 109.262 40.4025 102.469C26.5632 99.1062 15.2002 94.6582 6.24282 83.0971C-1.95042 72.5218 -1.71929 66.8002 7.70034 57.0599C9.0588 52.2816 14.0257 48.1496 13.3229 43.3148C12.9974 41.0649 6.80413 30.9141 13.1153 16.0276C21.2661 -3.189 46.6807 -4.00974 58.105 12.6928C60.8031 16.6361 61.1191 19.9238 63.2087 21.9615C69.1803 21.8718 75.1896 21.3766 81.1235 22.169C82.0857 21.9332 83.18 18.0464 83.7272 17.0653C94.8119 -2.77863 124.146 -6.24083 132.467 17.9002C137.16 31.5226 131.335 41.362 131.009 43.7299C130.406 48.1166 135.038 51.975 136.424 56.0174C145.636 66.0503 146.622 71.9322 138.509 83.0971C131.99 92.0639 122.368 97.2997 111.953 100.488C109.397 101.271 104.491 101.861 104.557 102.677C104.661 103.932 118.698 119.691 120.491 122.153C126.09 120.144 133.321 115.384 137.467 122.464C144.325 134.176 126.019 161.614 119.137 171.619C119.415 173.006 138.358 173.827 139.863 174.223C145.212 175.633 147.358 186.501 137.363 185.473C136.533 185.388 126.316 181.675 126.429 182.661C130.396 185.51 139.127 185.557 139.759 191.619C140.339 197.166 135.104 198.571 130.698 196.93C129.415 196.453 120.788 189.845 116.741 188.392C117.83 190.053 119.925 191.005 120.802 192.869C123.892 199.416 117.524 203.656 112.156 200.052C111.165 199.387 105.34 192.633 103.722 190.888V190.883Z" fill="#503333"/>
<path d="M121.844 131.728L121.222 131.209C118.368 139.313 115.458 147.563 112.264 155.577C110.896 159.006 103.472 175.086 103.307 176.199C102.972 178.454 104.222 181.968 105.283 181.925C107.377 181.85 104.396 178.053 104.764 176.822C104.995 176.506 105.17 176.534 105.179 176.51C105.505 178.718 106.481 181.072 107.679 182.968C108 184.557 111.854 188.906 113.302 190.364C113.958 191.02 117.821 194.477 117.882 193.803C117.92 193.859 118.59 194.416 118.717 194.845C117.528 193.85 116.561 197.123 113.821 195.26C113.014 194.713 101.948 182.822 100.906 180.68C100.236 180.558 96.972 185.09 94.8636 186.723C94.1089 187.307 92.5051 187.539 92.6749 188.388C91.1184 188.524 89.3165 188.416 87.8826 187.765C85.2458 180.897 92.9061 185.048 96.0051 178.496C98.3777 173.478 106.495 139.794 111.835 129.86C112.349 129.219 113.571 128.228 112.354 127.776C110.986 127.271 109.816 129.087 108.915 129.648C108.901 128.912 110.392 128.247 110.373 127.672C110.354 127.092 104.628 119.125 103.5 118.403C102.84 116.974 100.779 113.257 99.7503 112.257C100.812 115.299 101.547 118.441 102.458 121.526C99.8635 122.832 98.5097 126.11 96.6277 128.398C94.8872 121.875 92.4485 115.677 86.4203 111.946C85.8166 111.573 81.7459 109.63 81.2129 109.446C83.7128 109.045 86.2977 109.295 88.8165 109.031C91.7457 108.719 101.18 106.917 102.665 104.866C105.278 108.488 106.25 109.266 108.708 112.262C111.778 116.002 121.486 127.445 121.83 131.738L121.844 131.728Z" fill="#A2CB3F"/>
<path d="M44.1519 102.361C44.1943 104.257 41.751 105.653 43.2132 106.318C43.6519 106.516 51.6706 108.469 52.5857 108.611C54.7507 108.941 61.5336 109.422 63.5194 109.233C63.4251 109.417 63.0524 109.578 62.8968 109.649C59.1752 111.304 56.4252 112.795 53.7319 116.002C51.2178 118.993 48.1518 125.337 47.9018 129.228C45.9962 127.7 43.6094 124.898 42.6943 122.667C42.416 121.993 42.6802 121.139 42.0717 121.313C42.9255 118.436 43.4774 115.304 44.4679 112.564C44.2604 112.521 42.7179 115.667 42.4915 116.106C39.6755 119.46 37.0482 123.53 34.5766 127.459C34.1851 128.162 34.4587 128.582 34.7841 129.228C30.0248 126.997 33.204 129.525 35.619 134.021C34.5058 133.653 34.9822 136.766 35.4115 138.917C35.5577 139.638 38.6756 150.652 39.3689 153.082C41.1048 159.152 43.2557 165.19 45.199 171.204C46.2509 174.454 45.9396 178.477 50.3027 181.095C50.9348 181.473 51.0008 181.081 51.0338 181.095C53.8592 182.501 54.8026 182.458 55.5101 182.76C56.6139 183.232 57.9959 184.477 58.5289 184.633C60.0902 188.114 53.0385 189.189 48.4254 185.256C47.2273 184.237 44.6283 180.114 42.8028 180.675C42.666 180.718 41.0623 182.727 41.034 182.864C41.001 183.02 41.6661 183.241 41.6566 183.279C41.468 184.072 35.5483 190.746 34.4728 191.925C34.3077 192.104 34.1426 191.619 33.9539 191.821C33.1143 192.718 31.6757 194.972 30.4116 195.986C30.7936 197.307 28.6993 199.161 31.5578 197.34C33.8172 195.902 35.935 191.968 38.3265 190.468C36.9869 192.029 32.2889 197.916 30.7229 198.383C28.5107 199.038 26.3079 197.218 26.4541 195.468C30.6238 191.034 40.8972 183.355 40.1991 176.826C40.0246 175.204 35.4209 166.982 34.369 164.539C31.8078 158.61 23.4353 137.12 24.1617 131.837C25.0249 125.601 40.7085 109.167 41.4491 107.884C42.0859 106.781 42.3123 106.884 41.4491 106.116C41.8547 105.606 42.9726 102.512 44.1566 102.366L44.1519 102.361Z" fill="#A2CB3F"/>
<path d="M97.8924 134.228L98.515 141.205C98.6047 148.902 96.0292 156.119 93.9349 163.388C81.0814 169.874 63.2657 170.029 50.4027 163.596C48.4594 155.822 46.0821 149.134 46.2377 140.893C48.4264 146.87 53.8744 157.808 60.5063 159.431C72.2278 162.303 85.171 153.251 91.435 144.016C95.1425 138.554 95.1708 136.955 96.4349 130.686L97.8924 134.228Z" fill="#E1A799"/>
<path d="M137.674 78.8236C129.528 92.2621 117.34 96.2054 102.576 99.2336C82.7318 103.309 62.0247 103.62 42.1713 99.4412C27.7848 96.4129 15.8746 92.1772 7.28516 79.6538C7.67666 79.6444 7.40308 79.1066 7.4927 78.8189C7.64836 78.3284 8.12005 77.9227 8.11533 77.7765H8.32287C32.0347 103.29 89.5006 102.366 119.236 89.6489C129.967 85.0594 132.806 80.1585 134.962 78.6114C135.174 78.4604 136.019 78.4557 136.108 78.4038C137.278 77.6963 139.217 75.4416 137.254 78.7151L137.669 78.8189L137.674 78.8236Z" fill="#E1A799"/>
<path d="M136.009 132.563C135.25 137.601 132.519 142.393 130.387 146.935C130.396 146.78 130.424 146.525 130.283 146.52C129.533 146.492 124.745 156.822 123.929 158.289C122.023 161.714 119.571 164.85 117.887 168.393C116.788 169.827 116.514 170.605 114.66 171.935C113.981 172.421 109.618 175.133 109.557 173.496C109.533 172.841 114.472 163.275 115.179 161.624C118 155.049 123.075 141.959 123.929 135.275C125.391 135.596 126.174 134.709 126.429 138.087C126.589 140.209 125.165 142.016 127.264 142.459C126.825 146.657 132.075 139.761 132.471 137.459C132.82 135.431 130.457 133.488 136.014 132.563H136.009Z" fill="#478E55"/>
<path d="M102.684 104.861C101.198 106.913 91.7596 108.715 88.8351 109.026C86.321 109.295 83.7314 109.04 81.2315 109.441C75.5429 107.498 69.26 107.441 63.529 109.233C61.5384 109.417 54.7556 108.941 52.5952 108.611C51.6801 108.469 43.6614 106.516 43.2228 106.318C41.7605 105.653 44.2039 104.257 44.1614 102.361C62.8167 106.583 82.2314 105.988 100.92 102.361C101.741 103.035 102.094 104.031 102.689 104.861H102.684Z" fill="#B18276"/>
<path d="M20.8271 137.563C22.011 143.634 27.327 158.053 29.992 164.119C30.5628 165.421 34.6004 172.77 34.5721 173.284C34.558 173.572 34.4542 173.633 34.2608 173.803C29.3081 172.204 28.9637 170.657 27.077 168.18C27.5015 168.152 26.9449 166.973 26.8694 166.827C25.4449 164.072 21.2611 158.162 19.3696 154.539C17.7894 151.511 16.7659 148.369 15.4121 145.27C16.5772 144.709 16.7328 146.681 17.2847 147.459C19.2988 150.27 17.7706 143.803 17.9073 141.629C18.0158 141.039 20.1432 137.903 20.8224 137.568L20.8271 137.563Z" fill="#478E55"/>
<path d="M22.6999 125.478C20.2235 129.502 19.9782 130.422 20.4075 135.058C14.8651 133.2 17.516 140.11 18.0113 140.058C18.7896 139.129 19.5678 137.162 20.615 136.936C20.6339 137.058 20.7424 137.148 20.8225 137.558C20.1433 137.893 18.016 141.03 17.9075 141.62C17.7707 143.799 19.2943 150.261 17.2849 147.45C16.7283 146.671 16.5726 144.704 15.4123 145.261C14.0821 142.219 13.0019 140.252 11.8699 136.931C14.2708 133.695 14.2802 131.964 11.035 135.058C10.0397 131.681 8.98315 128.181 10.6199 124.747C13.134 119.469 19.0679 124.568 22.6999 125.478Z" fill="#A2CB3F"/>
<path d="M55.402 14.2541C54.2747 13.056 48.289 8.40984 46.756 7.5891C31.0204 -0.882439 15.5349 10.5985 14.3651 28.3151C13.6528 39.1734 18.4499 41.9281 16.865 47.6874C16.1716 50.2157 11.6057 56.3476 10.8227 59.7674C7.63878 62.8947 4.153 66.5833 4.5728 71.3285C4.61054 71.7624 4.49733 72.3662 4.5728 72.6822C4.58695 72.7435 5.02091 73.4228 5.19543 73.8284C3.14359 73.3001 6.66239 78.5595 7.48784 78.8283C7.39822 79.1161 7.6718 79.6491 7.2803 79.6632C0.723821 70.1068 1.9738 67.2955 9.78025 58.7296C10.7661 55.192 15.4924 49.3949 16.0301 46.6497C16.9971 41.6922 12.4877 38.164 13.1151 27.6972C14.5679 3.38635 41.0721 -5.45783 55.3973 14.2635L55.402 14.2541Z" fill="white"/>
<path d="M93.9336 163.388C96.0279 156.119 98.608 148.902 98.5137 141.205L97.8911 134.228L104.764 128.813C105.198 130.327 105.801 131.775 106.221 133.29C102.273 142.596 99.7401 152.431 96.6411 162.034C96.2779 162.511 94.6694 163.015 93.9336 163.388Z" fill="#5B9D5B"/>
<path d="M26.4501 195.463C26.6718 192.774 39.3272 184.968 38.7376 176.822C38.6103 175.058 32.884 164.468 31.6576 161.615C29.2472 156.006 22.0446 136.615 22.7002 131.412C23.0775 128.441 31.8274 117.049 34.1575 114.125C36.3792 111.332 39.2235 108.903 41.4498 106.106C42.313 106.875 42.0866 106.776 41.4498 107.875C40.7093 109.163 25.0256 125.592 24.1624 131.827C23.4313 137.11 31.8085 158.6 34.3698 164.53C35.4264 166.973 40.0301 175.194 40.1999 176.817C40.8932 183.345 30.6199 191.024 26.4548 195.458L26.4501 195.463Z" fill="white"/>
<path d="M35.6142 134.021C39.7604 141.742 43.7367 159.261 46.864 168.699C47.5574 170.789 50.114 178.694 51.029 179.841V181.091C50.996 181.076 50.93 181.468 50.2979 181.091C45.9348 178.473 46.2461 174.449 45.1942 171.199C43.2462 165.185 41.1 159.152 39.3642 153.077C38.6708 150.648 35.5529 139.634 35.4067 138.912C34.9775 136.761 34.5058 133.648 35.6142 134.016V134.021Z" fill="#88B463"/>
<path d="M121.844 131.728C122.372 138.318 114.259 157.544 111.222 164.327C109.406 168.379 106.717 172.383 105.179 176.51C105.17 176.534 104.995 176.506 104.764 176.822C104.396 178.053 107.382 181.85 105.283 181.925C104.217 181.963 102.967 178.454 103.307 176.199C103.472 175.086 110.896 159.006 112.264 155.577C115.458 147.563 118.363 139.308 121.222 131.209L121.844 131.728Z" fill="#88B463"/>
<path d="M125.802 11.7541C115.171 3.0326 104.76 2.15997 93.8313 11.1315C86.7277 16.9616 86.4022 21.9237 85.1853 24.1501C82.6948 28.7114 80.9684 25.1407 70.7091 25.5039C65.6149 25.6831 60.1716 28.4849 59.7754 22.5888C62.3319 27.018 64.4828 24.6077 68.4215 24.4614C74.4874 24.2397 81.9023 25.2727 82.5863 25.0841C84.1523 24.6595 84.756 20.8342 85.3975 19.5653C93.0766 4.40993 113.765 -3.5003 125.807 11.7541H125.802Z" fill="white"/>
<path d="M46.4444 138.601C46.3878 139.337 46.2463 140.346 46.2368 140.893C46.0812 149.134 48.4585 155.822 50.4018 163.596C49.7509 163.27 48.5528 163.506 47.4868 161.619C44.7651 152.525 41.7511 143.497 38.9492 134.436C39.5435 133.79 40.4303 135.492 42.3878 136.728C43.6378 137.516 45.0765 138.077 46.4491 138.601H46.4444Z" fill="#5B9D5B"/>
<path d="M47.9016 129.228C47.8828 129.502 47.9016 129.785 47.9016 130.063C47.1422 132.945 46.6658 135.624 46.4441 138.601C45.0715 138.072 43.6329 137.516 42.3829 136.728C40.4301 135.497 39.5386 133.79 38.9443 134.436C38.916 134.341 38.2179 133.271 38.1094 132.667C39.6471 128.983 40.9348 125.139 42.0668 121.313C42.68 121.139 42.4159 121.993 42.6895 122.667C43.6046 124.893 45.9913 127.7 47.8969 129.228H47.9016Z" fill="#88B463"/>
<path d="M87.8923 187.76C86.2272 187.006 85.9159 185.756 86.8498 183.907C88.3404 180.968 92.5337 182.506 94.3497 178.907C97.1704 173.312 103.859 140.596 110.387 131.209C110.727 130.724 111.585 130.181 111.845 129.856C106.505 139.789 98.3921 173.473 96.0148 178.492C92.9158 185.043 85.2555 180.892 87.8923 187.76Z" fill="white"/>
<path d="M33.7369 182.968C26.303 186.666 17.8645 188.751 11.6571 194.425C10.0345 194.246 8.84583 193.383 9.15714 191.614C9.62883 188.944 14.0155 189.213 15.9259 188.595C16.6947 188.345 27.4728 182.444 30.2982 181.095C31.9114 180.322 35.5576 179.826 35.817 177.76C35.85 177.751 35.9019 177.576 36.3359 177.345C36.3925 179.477 35.3217 181.496 33.7321 182.968H33.7369Z" fill="#B1C672"/>
<path d="M29.1572 177.345C26.8695 178.213 24.9167 178.671 22.4923 179.218C22.2234 178.289 17.7706 179.751 15.9311 180.053C14.549 180.279 10.9123 180.124 9.88872 181.095C9.79438 181.185 9.99249 181.359 9.78495 181.93C9.25666 182.062 7.80386 183.105 5.61994 182.765C5.79918 182.157 4.73316 182.43 4.36996 181.826C3.53035 180.425 4.87938 178.213 6.34634 177.765C7.46424 177.421 22.53 177.454 27.4874 175.058C28.0157 175.817 28.8931 176.369 29.1525 177.35L29.1572 177.345Z" fill="#B1C672"/>
<path d="M141.425 179.218C143.462 185.633 134.496 181.463 131.845 180.883C132.189 179.991 130.453 180.279 129.033 179.841C125.845 178.859 122.114 176.822 116.85 176.298C116.925 176.114 116.793 175.902 117.472 174.841C123.557 177.732 136.977 177.279 138.406 177.548C139.585 177.77 140.274 179.025 141.425 179.213V179.218Z" fill="#B1C672"/>
<path d="M22.6993 125.478C19.0626 124.568 13.1335 119.469 10.6193 124.747C8.98259 128.181 10.0439 131.681 11.0344 135.058C11.2278 135.714 11.6571 136.313 11.8693 136.931C13.0014 140.252 14.0815 142.219 15.4117 145.261C16.7655 148.36 17.789 151.501 19.3692 154.53C21.2607 158.157 25.4445 164.063 26.869 166.817C26.9445 166.963 27.5011 168.143 27.0766 168.171C21.1475 160.393 7.33167 136.181 8.5392 126.827C9.71842 117.696 18.2183 121.431 22.704 125.474L22.6993 125.478Z" fill="white"/>
<path d="M118.723 194.84C119.676 198.076 116.628 199.236 114.246 198.175C111.794 197.081 101.874 184.02 100.916 183.803C98.9637 183.364 97.6618 187.954 92.6902 188.383C92.5204 187.534 94.1242 187.298 94.8789 186.718C96.9873 185.086 100.251 180.558 100.921 180.675C101.964 182.817 113.029 194.708 113.836 195.255C116.577 197.119 117.544 193.84 118.732 194.84H118.723Z" fill="#88B463"/>
<path d="M58.5257 184.633C58.6295 184.666 58.8087 184.619 58.9408 184.633C60.5776 190.671 48.2382 189.086 44.2571 183.175C42.2005 185.539 40.361 188.09 38.3233 190.468C35.9318 191.968 33.8139 195.902 31.5545 197.34C28.6961 199.161 30.7904 197.307 30.4083 195.986C31.6677 194.972 33.1111 192.718 33.9507 191.821C34.1394 191.619 34.3045 192.104 34.4696 191.925C35.5497 190.751 41.4694 184.076 41.6534 183.279C41.6628 183.241 40.993 183.02 41.0308 182.864C41.0638 182.727 42.6675 180.718 42.7996 180.675C44.625 180.114 47.2287 184.237 48.4221 185.256C53.0352 189.185 60.0823 188.114 58.5257 184.633Z" fill="#88B463"/>
<path d="M137.051 192.34C137.051 192.454 137.565 193.303 136.112 194.213C133.372 195.939 131.414 193.845 130.594 193.378C131.235 192.468 130.447 191.784 129.655 191.086C128.424 189.996 115.49 182.727 114.867 182.128C114.58 181.85 114.924 181.751 114.971 181.506C117.264 182.52 119.655 183.383 121.947 184.421C124.325 185.496 127.372 187.539 129.862 188.586C132.023 189.491 133.9 188.274 137.046 192.336L137.051 192.34Z" fill="#B1C672"/>
<path d="M102.477 121.521C103.194 123.955 104.071 126.375 104.769 128.813L97.8965 134.228L96.4389 130.686C96.5852 129.964 96.1937 129.092 96.6465 128.393C98.5332 126.106 99.887 122.827 102.477 121.521Z" fill="#88B463"/>
<path d="M109.972 178.175C107.736 178.916 112.656 180.482 114.972 181.51C114.925 181.756 114.576 181.855 114.868 182.133C115.491 182.732 128.425 190.001 129.656 191.09C130.444 191.788 131.236 192.468 130.594 193.383C128.227 192.038 126.033 190.298 123.618 189.01C120.392 187.289 113.557 184.864 111.746 183.595C109.048 181.699 107.656 177.35 108.411 177.138C108.571 177.095 109.821 178.114 109.972 178.18V178.175Z" fill="#B1C672"/>
<path d="M35.8224 177.76C35.5629 179.826 31.9168 180.322 30.3036 181.095C27.4782 182.444 16.7048 188.345 15.9312 188.595C14.0209 189.218 9.63416 188.944 9.16248 191.614C8.84644 193.383 10.0398 194.246 11.6624 194.425C11.8747 194.449 12.0917 194.345 12.0775 194.633C7.73797 195.383 6.78045 190.765 9.88888 188.803C11.3747 187.864 13.4973 188.015 15.0963 187.345C20.4217 185.105 28.6668 179.779 35.8224 177.765V177.76Z" fill="white"/>
<path d="M109.971 178.176C112.74 179.336 115.674 180.251 118.405 181.51C122.287 183.293 125.924 185.671 129.862 187.34C131.9 188.204 137.169 188.289 137.046 192.34C133.895 188.279 132.023 189.501 129.862 188.59C127.372 187.543 124.325 185.501 121.947 184.425C119.655 183.388 117.263 182.525 114.971 181.51C112.655 180.487 107.735 178.916 109.971 178.176Z" fill="white"/>
<path d="M27.4921 174.638C27.5062 174.808 27.4685 175.02 27.4921 175.053C22.5346 177.449 7.46889 177.416 6.35099 177.76C4.87932 178.209 3.535 180.421 4.37461 181.822C4.73781 182.425 5.80383 182.152 5.62459 182.76C4.34631 182.558 3.31802 181.444 3.33218 180.157C3.3935 175.364 10.7613 176.647 13.8508 176.303C18.3743 175.798 22.9356 174.803 27.4921 174.638Z" fill="white"/>
<path d="M117.888 174.43C121.727 175.067 126.26 175.874 130.071 176.303C135.251 176.888 140.142 175.18 141.425 179.218C140.274 179.029 139.581 177.775 138.406 177.553C136.977 177.284 123.562 177.737 117.473 174.845C117.529 174.756 117.298 174.336 117.888 174.43Z" fill="white"/>
<path d="M42.4868 116.106C41.2934 118.37 40.1284 120.714 39.152 123.082C37.5058 127.082 36.8831 133.384 34.7794 129.228C34.4539 128.582 34.1804 128.162 34.5719 127.459C37.0435 123.53 39.6708 119.464 42.4868 116.106Z" fill="#B1C672"/>
<path d="M108.929 129.648C108.642 129.827 108.42 130.021 108.198 130.271C107.557 130.261 104.142 119.766 103.51 118.398C104.637 119.12 110.363 127.087 110.382 127.667C110.401 128.242 108.906 128.912 108.925 129.643L108.929 129.648Z" fill="#88B463"/>
<path d="M131.845 180.883C126.694 179.756 121.227 179.275 116.223 177.548C116.421 176.76 116.822 176.364 116.845 176.298C122.109 176.822 125.84 178.855 129.029 179.841C130.449 180.279 132.189 179.991 131.84 180.883H131.845Z" fill="#88B463"/>
<path d="M139.967 74.6586C139.241 76.4604 138.628 77.2529 137.675 78.8236L137.26 78.7198C139.222 75.4416 137.288 77.701 136.113 78.4085C136.024 78.4604 135.179 78.4651 134.967 78.6161C135.01 78.3614 134.901 77.951 134.967 77.7812C135.033 77.6067 136.878 75.4227 137.26 74.7624C137.769 73.8756 138.326 72.2671 138.717 71.536C140.066 69.0313 140.514 72.2011 139.967 74.6586Z" fill="#C1A285"/>
<path d="M33.7372 182.968C31.4447 185.09 24.0015 187.539 20.511 189.425C18.761 190.369 17.0016 191.505 15.3036 192.548C13.9592 193.373 13.9215 194.312 12.0772 194.633C12.0913 194.345 11.8744 194.449 11.6621 194.425C17.8695 188.751 26.3081 186.666 33.7419 182.968H33.7372Z" fill="#88B463"/>
<path d="M130.388 146.936C126.949 154.261 122.826 161.973 117.893 168.388C119.577 164.846 122.025 161.709 123.935 158.284C124.751 156.817 129.539 146.492 130.289 146.516C130.43 146.52 130.402 146.775 130.392 146.931L130.388 146.936Z" fill="#88B463"/>
<path d="M133.51 122.356C129.401 121.941 125.651 124.172 122.052 125.898C122.033 125.856 121.623 125.365 121.43 125.167C124.68 123.181 129.934 119.908 133.51 122.356Z" fill="white"/>
<path d="M20.4084 135.063C20.465 135.686 20.5121 136.322 20.6159 136.936C19.5687 137.167 18.7905 139.129 18.0122 140.058C17.5169 140.115 14.8613 133.205 20.4084 135.058V135.063Z" fill="#5B9D5B"/>
<path d="M117.886 174.43C117.292 174.336 117.528 174.76 117.471 174.845C116.792 175.907 116.924 176.119 116.849 176.303C116.82 176.369 116.419 176.765 116.226 177.553C115.707 177.374 112.717 176.35 112.684 175.992C117.33 172.647 117.599 174.383 117.891 174.43H117.886Z" fill="#598145"/>
<path d="M117.886 193.798C117.82 194.477 113.957 191.015 113.306 190.359C111.853 188.906 108 184.553 107.684 182.963C110.283 187.067 115.57 190.246 117.891 193.793L117.886 193.798Z" fill="white"/>
<path d="M58.9454 184.633C58.8133 184.619 58.6341 184.666 58.5303 184.633C57.9926 184.473 56.6152 183.232 55.5115 182.76C54.7992 182.454 53.8559 182.496 51.0352 181.095V179.845C52.9879 182.284 57.9784 181.062 58.9501 184.638L58.9454 184.633Z" fill="white"/>
<path d="M22.4917 179.218C17.9917 180.237 13.7182 180.614 11.5579 181.091C11.0296 181.208 10.2608 181.803 9.78906 181.925C9.99661 181.355 9.7985 181.185 9.89283 181.091C10.9117 180.124 14.5531 180.275 15.9352 180.048C17.7748 179.746 22.2275 178.289 22.4964 179.213L22.4917 179.218Z" fill="#88B463"/>
<path d="M29.1574 177.345C28.8933 176.364 28.0206 175.812 27.4923 175.053C27.4688 175.015 27.5065 174.808 27.4923 174.638C27.5206 174.638 27.6574 174.218 27.8037 174.223C28.6763 174.232 32.2941 175.855 32.28 176.199C31.3177 176.756 30.1951 176.949 29.1574 177.345Z" fill="#5B9D5B"/>
<path d="M134.759 68.6163C132.896 67.9559 129.679 70.6964 127.99 71.5313C95.9059 87.4131 57.067 89.1017 23.846 75.2812C19.0347 73.2813 14.3461 69.9181 9.57736 68.4087C8.917 68.2012 8.70474 68.4653 8.74247 68.0974C14.7046 60.8287 14.049 66.2531 23.0111 71.3238C39.1051 80.4368 67.0527 83.083 85.2882 81.3236C91.9296 80.6821 106.486 77.5123 112.783 75.2812C123.316 71.5455 129.301 65.5409 130.278 65.2814C131.853 64.8711 135.014 66.8144 134.754 68.6163H134.759Z" fill="#88B463"/>
<path d="M134.758 68.6162C135.574 70.3898 140.763 68.8002 138.301 71.5313C136.56 73.4605 134.541 70.3096 134.032 70.2813C133.89 70.2718 132.041 71.5218 131.636 71.7388C128.419 73.4652 125.999 75.2482 122.16 76.9462C92.3063 90.1535 54.2363 89.7385 24.0576 77.7811C18.6049 75.6208 16.0201 73.6774 12.4965 71.9511C11.7183 71.569 10.8881 70.7152 9.89282 70.9086C9.66169 70.9511 8.02022 72.7529 6.66647 71.9511C5.97309 71.5407 6.00139 70.7907 6.04384 70.0785C7.26551 68.8143 7.15231 70.6115 9.58622 68.4134C14.355 69.9228 19.0436 73.2859 23.8548 75.2859C57.0759 89.1064 95.9148 87.4177 127.999 71.536C129.688 70.7011 132.905 67.9606 134.768 68.6209L134.758 68.6162Z" fill="#503333"/>
<path d="M138.302 71.536H138.717C138.321 72.2671 137.769 73.8756 137.26 74.7624C136.878 75.4227 135.038 77.6066 134.967 77.7812C133.623 76.168 130.533 73.3945 131.632 71.7388C132.038 71.5219 133.887 70.2719 134.029 70.2813C134.538 70.3096 136.562 73.4605 138.297 71.5313L138.302 71.536Z" fill="#E1A799"/>
<path d="M6.04073 70.0785C5.99828 70.7955 5.96998 71.5454 6.66336 71.9511C5.02188 73.4464 5.8096 73.3756 6.87091 75.701C6.14922 76.1869 5.74357 75.0642 5.20584 73.8284C5.03132 73.4228 4.59736 72.7483 4.58321 72.6822C4.50774 72.3662 4.62095 71.7624 4.58321 71.3285C5.48414 71.9322 5.23886 70.9087 6.04073 70.0785Z" fill="#C7C486"/>
<path d="M81.2264 109.441C81.7595 109.625 85.8301 111.564 86.4339 111.941C85.8207 112.997 88.4527 115.002 89.3489 116.417C93.0564 122.285 93.5281 129.625 92.264 136.412C91.6555 139.695 88.9763 143.256 89.764 144.431C88.4857 145.039 86.6556 148.261 76.3303 149.011C69.6842 149.497 62.4957 148.648 56.6467 145.469C57.7363 145.016 55.7505 144.025 54.7741 142.657C48.8591 134.389 50.4157 120.785 57.7929 113.809C59.7033 112.007 62.2928 111.078 62.8966 109.644C63.057 109.573 63.4296 109.408 63.5192 109.229C69.2503 107.436 75.5332 107.498 81.2217 109.436L81.2264 109.441Z" fill="white"/>
<path d="M96.6411 128.398C96.1883 129.096 96.5798 129.969 96.4336 130.691C95.1695 136.959 95.1412 138.558 91.4337 144.02C90.8913 143.983 90.2403 144.214 89.7686 144.436C88.9809 143.256 91.6601 139.7 92.2686 136.417C93.528 129.629 93.0563 122.29 89.3535 116.422C88.4573 115.002 85.8206 112.997 86.4385 111.946C92.4667 115.681 94.9053 121.875 96.6459 128.398H96.6411Z" fill="#EEF0DC"/>
<path d="M62.9026 109.649C62.3036 111.082 59.7093 112.012 57.799 113.814C50.4217 120.79 48.8652 134.393 54.7801 142.662C55.7613 144.03 57.7471 145.02 56.6528 145.473C51.0491 142.426 47.8793 136.544 47.9029 130.059C47.9029 129.785 47.884 129.497 47.9029 129.224C48.1529 125.332 51.2236 118.988 53.733 115.997C56.4263 112.79 59.1763 111.299 62.8979 109.644L62.9026 109.649Z" fill="white"/>
<path d="M56.6532 145.478C62.5021 148.657 69.6907 149.506 76.3368 149.02C86.662 148.266 88.4922 145.049 89.7705 144.44C90.2422 144.214 90.8931 143.987 91.4355 144.025C85.1715 153.256 72.2284 162.308 60.5069 159.44C53.8796 157.817 48.4269 146.879 46.2383 140.903C46.2477 140.36 46.3892 139.346 46.4458 138.61C46.6722 135.629 47.1439 132.955 47.9033 130.073C47.8798 136.554 51.0448 142.44 56.6532 145.487V145.478Z" fill="#F5D5BF"/>
<path d="M134.967 77.7812C134.901 77.951 135.01 78.3567 134.967 78.6161C132.812 80.1679 129.972 85.0688 119.241 89.6536C89.5058 102.37 32.0399 103.295 8.32812 77.7812C9.41773 76.2482 10.0922 74.4322 11.5545 73.2011C11.9743 72.8473 13.3469 73.2813 12.4931 71.9511C16.0167 73.6822 18.6015 75.6209 24.0542 77.7812C54.2329 89.7385 92.3077 90.1536 122.156 76.9463C125.996 75.2482 128.415 73.4652 131.632 71.7389C130.529 73.3945 133.623 76.168 134.967 77.7812Z" fill="#F5D5BF"/>
<path d="M12.4934 71.9511C13.3519 73.2813 11.9745 72.8473 11.5547 73.2011C10.0925 74.4322 9.41798 76.2529 8.32837 77.7812H8.12083C8.12083 77.6585 7.06425 76.1208 6.87086 75.6963C5.80955 73.3709 5.02183 73.4416 6.66331 71.9464C8.02178 72.7483 9.65854 70.9511 9.88967 70.9039C10.8849 70.7106 11.7151 71.5643 12.4934 71.9464V71.9511Z" fill="#D2A991"/>
<path d="M5.20562 73.8237C5.74335 75.0642 6.15372 76.1869 6.87068 75.6963C7.06408 76.1161 8.11594 77.6585 8.12066 77.7812C8.12066 77.9274 7.65369 78.3283 7.49803 78.8236C6.67258 78.5547 3.15377 73.2954 5.20562 73.8237Z" fill="#E7EABC"/>
<path d="M11.87 136.936C11.6578 136.313 11.2285 135.714 11.0352 135.063C14.2804 131.974 14.2709 133.7 11.87 136.936Z" fill="#61904B"/>
<path d="M133.51 122.356C136.718 124.549 136.534 129.096 136.01 132.563C130.454 133.488 132.817 135.431 132.468 137.459C132.071 139.761 126.822 146.657 127.26 142.459C125.166 142.016 126.586 140.209 126.425 138.087C126.171 134.709 125.388 135.596 123.925 135.275C124.642 129.643 123.954 130.03 122.053 125.903C125.652 124.177 129.402 121.945 133.51 122.361V122.356Z" fill="#A2CB3F"/>
<path d="M132.156 126.313C134.722 132.096 129.929 130.214 130.179 128.29C130.222 127.95 131.915 126.261 132.156 126.313Z" fill="#88B463"/>
<path d="M129.657 135.271C129.803 135.351 129.798 135.648 129.76 135.79C129.506 136.785 126.841 137.356 129.657 135.271Z" fill="#7B9E55"/>
<path d="M126.326 131.106C126.411 131.087 127.628 132.176 126.949 132.356C126.156 132.568 125.661 131.247 126.326 131.106Z" fill="#61904B"/>
<path d="M55.4031 14.2541C58.3748 17.4097 58.5823 20.5087 59.7757 22.5841C60.1719 28.4802 65.6199 25.6784 70.7095 25.4992C80.9687 25.136 82.6951 28.7066 85.1856 24.1454C86.4026 21.919 86.728 16.9569 93.8317 11.1268C104.761 2.15526 115.171 3.02788 125.803 11.7494C130.793 18.0701 132.076 26.4142 131.01 34.3481C130.505 38.1121 127.614 42.9328 128.095 46.428C128.251 47.5506 134.09 57.475 135.175 59.1353C138.553 64.2956 143.529 65.8286 139.968 74.6539C140.515 72.1964 140.067 69.0266 138.718 71.5313H138.303C140.765 68.8002 135.576 70.3898 134.76 68.6163C135.02 66.8144 131.855 64.8711 130.284 65.2814C129.303 65.5361 123.322 71.5455 112.789 75.2812C106.492 77.5123 91.9355 80.6821 85.2941 81.3236C67.0586 83.083 39.111 80.4415 23.017 71.3238C14.0596 66.2484 14.7105 60.8287 8.74837 68.0974C8.70592 68.4653 8.92289 68.2012 9.58326 68.4087C7.15406 70.6068 7.26727 68.8097 6.04087 70.0738C5.239 70.904 5.48428 71.9275 4.58335 71.3238C4.16355 66.5786 7.64933 62.89 10.8332 59.7627C11.6115 56.3429 16.1775 50.2062 16.8756 47.6827C18.4604 41.9234 13.6634 39.1734 14.3756 28.3104C15.5407 10.5938 31.031 -0.887137 46.7665 7.5844C48.2948 8.40514 54.2852 13.0513 55.4126 14.2494L55.4031 14.2541Z" fill="#A2CB3F"/>
<path d="M116.431 48.2063C118.275 48.5742 120.303 47.9232 122.157 48.2063C125.214 48.6685 128.614 51.8713 128.718 55.0788C128.812 58.0363 126.666 59.824 124.346 61.3286C114.058 64.5314 107.294 58.3098 111.638 51.8524C112.497 50.5741 114.77 49.4751 114.553 48.6261C115.02 48.5836 115.968 48.3525 116.426 48.211L116.431 48.2063Z" fill="#F0B1AF"/>
<path d="M27.4932 47.9987C27.8705 48.1214 29.5922 48.6025 29.7856 48.6213C29.3469 49.6308 32.5874 50.7487 33.328 53.5175C35.3232 61.0032 26.6536 63.5031 19.7905 61.3287C17.3707 59.9277 15.1963 57.4702 15.4179 54.4561C16.2434 48.9232 22.8046 47.7629 27.4979 47.9987H27.4932Z" fill="#F0B1AF"/>
<path d="M78.8371 57.9938C81.2333 57.6825 81.1531 64.9371 79.2522 65.2861C76.6532 65.7626 76.79 58.2627 78.8371 57.9938Z" fill="#150F0F"/>
<path d="M65.2941 57.7863C67.4733 57.6165 67.4498 65.2248 65.7092 65.4937C63.5725 65.8239 63.0253 57.9608 65.2941 57.7863Z" fill="#150F0F"/>
<path d="M124.346 61.3286C126.666 59.824 128.813 58.0363 128.718 55.0788C129.935 58.3098 127.148 60.4513 124.346 61.3286Z" fill="#B69079"/>
<path d="M19.786 61.3287C16.6257 60.3287 14.9229 57.7344 15.4134 54.4561C15.1917 57.4702 17.3709 59.9325 19.786 61.3287Z" fill="#B69079"/>
<path d="M29.781 48.6214C29.5876 48.6025 27.8707 48.1167 27.4886 47.9987C18.8284 45.2441 13.0266 32.4094 19.1586 23.735C25.4085 14.8862 38.4412 17.6597 42.4883 27.0699C46.5401 36.4989 39.4507 49.6732 29.781 48.6261V48.6214Z" fill="#503333"/>
<path d="M24.6819 24.0464C30.9176 22.8341 32.2572 32.8198 26.347 33.6264C19.3896 34.5792 19.5735 25.0369 24.6819 24.0464Z" fill="white"/>
<path d="M34.6763 25.0841C40.379 24.0416 39.8838 31.8764 36.5489 32.5839C31.6575 33.6169 30.7094 25.8105 34.6763 25.0841Z" fill="#986B65"/>
<path d="M116.43 48.2063C115.972 48.3525 115.02 48.5836 114.557 48.6213C109.105 49.093 103.93 44.6261 102.062 39.7677C95.171 21.8813 117.218 10.6881 125.6 24.5605C132.293 35.6404 122.694 46.2393 116.435 48.2015L116.43 48.2063Z" fill="#503333"/>
<path d="M109.661 24.0463C116.665 22.8954 116.472 32.7018 111.745 33.6264C104.75 34.9942 104.33 24.9237 109.661 24.0463Z" fill="white"/>
<path d="M119.241 25.084C125.599 23.6973 124.118 34.881 118.826 32.1641C116.095 30.7632 116.727 25.6312 119.241 25.084Z" fill="#986B65"/>
</svg>
