<svg width="20" height="13" viewBox="0 0 20 13" fill="none" xmlns="http://www.w3.org/2000/svg">
<path fill-rule="evenodd" clip-rule="evenodd" d="M19.8852 1.55884C19.8852 0.929022 19.4101 0.418457 18.824 0.418457H17.7628C17.1767 0.418457 16.7016 0.929022 16.7016 1.55884V11.4421C16.7016 12.0719 17.1767 12.5825 17.7628 12.5825H18.824C19.4101 12.5825 19.8852 12.0719 19.8852 11.4421V1.55884ZM12.4891 2.85126H13.5503C14.1364 2.85126 14.6115 3.37408 14.6115 4.01901V11.4147C14.6115 12.0597 14.1364 12.5825 13.5503 12.5825H12.4891C11.903 12.5825 11.4278 12.0597 11.4278 11.4147V4.01901C11.4278 3.37408 11.903 2.85126 12.4891 2.85126ZM8.17939 5.48679H7.11816C6.53207 5.48679 6.05694 6.01627 6.05694 6.66941V11.3999C6.05694 12.053 6.53207 12.5825 7.11816 12.5825H8.17939C8.76549 12.5825 9.24061 12.053 9.24061 11.3999V6.66941C9.24061 6.01627 8.76549 5.48679 8.17939 5.48679ZM2.90565 7.91961H1.84443C1.25833 7.91961 0.783203 8.44152 0.783203 9.08533V11.4168C0.783203 12.0606 1.25833 12.5825 1.84443 12.5825H2.90565C3.49175 12.5825 3.96688 12.0606 3.96688 11.4168V9.08533C3.96688 8.44152 3.49175 7.91961 2.90565 7.91961Z" fill="black"/>
</svg>
