<svg width="7" height="6" viewBox="0 0 7 6" fill="none" xmlns="http://www.w3.org/2000/svg">
<path d="M5 5.625V5C5 4.30937 4.44063 3.75 3.75 3.75H1.25C0.559375 3.75 0 4.30937 0 5V5.625" stroke="#7E7E7E" stroke-width="0.5" stroke-linecap="round" stroke-linejoin="round"/>
<path d="M2.5 2.5C3.19036 2.5 3.75 1.94036 3.75 1.25C3.75 0.559644 3.19036 0 2.5 0C1.80964 0 1.25 0.559644 1.25 1.25C1.25 1.94036 1.80964 2.5 2.5 2.5Z" stroke="#7E7E7E" stroke-width="0.5" stroke-linecap="round" stroke-linejoin="round"/>
<path d="M6.875 5.6249V4.9999C6.875 4.43115 6.4875 3.93428 5.9375 3.79053" stroke="#7E7E7E" stroke-width="0.5" stroke-linecap="round" stroke-linejoin="round"/>
<path d="M4.6875 0.0405273C5.35625 0.212402 5.75937 0.893652 5.5875 1.5624C5.475 2.00303 5.12812 2.3499 4.6875 2.4624" stroke="#7E7E7E" stroke-width="0.5" stroke-linecap="round" stroke-linejoin="round"/>
</svg>
