<svg width="8" height="20" viewBox="0 0 8 20" fill="none" xmlns="http://www.w3.org/2000/svg">
<path fill-rule="evenodd" clip-rule="evenodd" d="M5 2C5.26522 2 5.51957 2.10536 5.70711 2.29289C5.89464 2.48043 6 2.73478 6 3V17C6 17.2652 5.89464 17.5196 5.70711 17.7071C5.51957 17.8946 5.26522 18 5 18H1C0.447715 18 0 18.4477 0 19C0 19.5523 0.447715 20 1 20H5C5.79565 20 6.55871 19.6839 7.12132 19.1213C7.68393 18.5587 8 17.7957 8 17V3C8 2.20435 7.68393 1.44129 7.12132 0.87868C6.55871 0.31607 5.79565 0 5 0H1C0.447715 0 0 0.447715 0 1C0 1.55228 0.447715 2 1 2H5Z" fill="black"/>
</svg>
