<svg width="18" height="13" viewBox="0 0 18 13" fill="none" xmlns="http://www.w3.org/2000/svg">
<path fill-rule="evenodd" clip-rule="evenodd" d="M8.87327 2.97421C11.3477 2.97431 13.7275 3.89169 15.5208 5.53673C15.6559 5.66374 15.8717 5.66213 16.0047 5.53314L17.2956 4.27612C17.3629 4.2107 17.4005 4.12207 17.3999 4.02987C17.3993 3.93766 17.3607 3.84947 17.2926 3.7848C12.5857 -0.567591 5.16008 -0.567591 0.453208 3.7848C0.385025 3.84942 0.34634 3.93758 0.345711 4.02979C0.345082 4.122 0.382562 4.21065 0.449858 4.27612L1.7411 5.53314C1.87402 5.66233 2.09003 5.66393 2.22499 5.53673C4.01853 3.89158 6.39861 2.9742 8.87327 2.97421ZM8.86994 7.17295C10.2203 7.17287 11.5225 7.68199 12.5235 8.60141C12.6589 8.73189 12.8722 8.72907 13.0042 8.59503L14.2849 7.28246C14.3523 7.21361 14.3897 7.12021 14.3888 7.02316C14.3878 6.9261 14.3485 6.83349 14.2797 6.76605C11.2315 3.88995 6.51097 3.88995 3.46277 6.76605C3.39391 6.83349 3.35463 6.92615 3.35372 7.02323C3.35282 7.12032 3.39037 7.21371 3.45796 7.28246L4.7383 8.59503C4.87028 8.72907 5.08355 8.73189 5.21894 8.60141C6.21926 7.6826 7.52043 7.17352 8.86994 7.17295ZM11.3815 9.95225C11.3834 10.0571 11.3465 10.1581 11.2796 10.2315L9.11401 12.6737C9.05053 12.7455 8.96398 12.7859 8.87367 12.7859C8.78337 12.7859 8.69682 12.7455 8.63334 12.6737L6.46741 10.2315C6.40051 10.1581 6.3637 10.057 6.36568 9.95216C6.36767 9.84735 6.40827 9.7481 6.4779 9.67784C7.8609 8.37065 9.88644 8.37065 11.2694 9.67784C11.339 9.74815 11.3796 9.84744 11.3815 9.95225Z" fill="black"/>
</svg>
