<?xml version="1.0" encoding="utf-8"?>
<!-- Generator: Adobe Illustrator 24.0.1, SVG Export Plug-In . SVG Version: 6.00 Build 0)  -->
<svg version="1.1" id="레이어_1" xmlns="http://www.w3.org/2000/svg" xmlns:xlink="http://www.w3.org/1999/xlink" x="0px"
	 y="0px" viewBox="0 0 29 29" style="enable-background:new 0 0 29 29;" xml:space="preserve">
<style type="text/css">
	.st0{fill:none;stroke:#000000;stroke-width:1.5;stroke-linecap:round;stroke-linejoin:round;}
	.st1{fill:none;stroke:#000000;stroke-width:2;stroke-linecap:round;stroke-linejoin:round;}
</style>
<path class="st0" d="M9.6,24.3H8.9c-5.6,0-8.4-1.4-8.4-8.4v-7c0-5.6,2.8-8.4,8.4-8.4h11.3c5.6,0,8.4,2.8,8.4,8.4v7
	c0,5.6-2.8,8.4-8.4,8.4h-0.7c-0.4,0-0.9,0.2-1.1,0.6l-2.1,2.8c-0.6,0.9-1.8,1.2-2.8,0.6c-0.3-0.2-0.5-0.4-0.6-0.6l-2.1-2.8
	C10.4,24.5,10,24.3,9.6,24.3z"/>
<path class="st1" d="M20.1,13.1L20.1,13.1"/>
<path class="st1" d="M14.5,13.1L14.5,13.1"/>
<path class="st1" d="M8.9,13.1L8.9,13.1"/>
</svg>
