<?xml version="1.0" encoding="utf-8"?>
<!-- Generator: Adobe Illustrator 24.0.1, SVG Export Plug-In . SVG Version: 6.00 Build 0)  -->
<svg version="1.1" id="레이어_1" xmlns="http://www.w3.org/2000/svg" xmlns:xlink="http://www.w3.org/1999/xlink" x="0px"
	 y="0px" viewBox="0 0 29 29" style="enable-background:new 0 0 29 29;" xml:space="preserve">
<style type="text/css">
	.st0{fill:none;stroke:#000000;stroke-width:1.2828;stroke-linecap:round;stroke-linejoin:round;}
	.st1{fill:none;stroke:#000000;stroke-width:1.7104;stroke-linecap:round;stroke-linejoin:round;}
</style>
<path class="st0" d="M10.3,22.9H9.7c-4.8,0-7.2-1.2-7.2-7.2v-6c0-4.8,2.4-7.2,7.2-7.2h9.7c4.8,0,7.2,2.4,7.2,7.2v6
	c0,4.8-2.4,7.2-7.2,7.2h-0.6c-0.3,0-0.8,0.2-0.9,0.5L16,25.8c-0.5,0.8-1.5,1-2.4,0.5c-0.3-0.2-0.4-0.3-0.5-0.5l-1.8-2.4
	C11,23.1,10.7,22.9,10.3,22.9z"/>
<path class="st1" d="M19.3,13.3L19.3,13.3"/>
<path class="st1" d="M14.5,13.3L14.5,13.3"/>
<path class="st1" d="M9.7,13.3L9.7,13.3"/>
</svg>
