<?xml version="1.0" encoding="utf-8"?>
<!-- Generator: Adobe Illustrator 24.0.1, SVG Export Plug-In . SVG Version: 6.00 Build 0)  -->
<svg version="1.1" id="레이어_1" xmlns="http://www.w3.org/2000/svg" xmlns:xlink="http://www.w3.org/1999/xlink" x="0px"
	 y="0px" viewBox="0 0 33 29" style="enable-background:new 0 0 33 29;" xml:space="preserve">
<style type="text/css">
	.st0{fill:none;stroke:#000000;stroke-width:2;stroke-linecap:round;stroke-linejoin:round;}
</style>
<path class="st0" d="M23.5,27.2v-2.8c0-3.1-2.5-5.6-5.6-5.6H6.7c-3.1,0-5.6,2.5-5.6,5.6v2.8"/>
<path class="st0" d="M12.3,13.1c3.1,0,5.6-2.5,5.6-5.6c0-3.1-2.5-5.6-5.6-5.6c-3.1,0-5.6,2.5-5.6,5.6C6.7,10.6,9.2,13.1,12.3,13.1z"
	/>
<path class="st0" d="M32,27.2v-2.8c0-2.6-1.7-4.8-4.2-5.4"/>
<path class="st0" d="M22.1,2c3,0.8,4.8,3.8,4,6.8c-0.5,2-2.1,3.5-4,4"/>
</svg>
