<svg width="17" height="15" viewBox="0 0 17 15" fill="none" xmlns="http://www.w3.org/2000/svg">
<path d="M4.59298 12.5312H7.71798L11.1945 14.8437C11.5539 15.0781 12.0383 14.9843 12.2805 14.625C12.3664 14.5 12.4055 14.3515 12.4133 14.1953V12.5312C14.4445 12.6562 16.1945 11.1015 16.3195 9.07027C16.3274 8.92183 16.3274 8.7734 16.3195 8.62496V3.93746C16.4445 1.90621 14.8899 0.15621 12.8586 0.0312099C12.7102 0.0233974 12.5617 0.0233974 12.4133 0.0312099H4.60079C2.56954 -0.0937901 0.81954 1.4609 0.69454 3.49215C0.686728 3.64058 0.686728 3.78902 0.69454 3.93746V8.62496C0.56954 10.6562 2.12423 12.4062 4.15548 12.5312C4.30391 12.539 4.45235 12.539 4.60079 12.5312H4.59298Z" stroke="#111111" stroke-linecap="round" stroke-linejoin="round"/>
</svg>
