<svg width="20" height="21" viewBox="0 0 20 21" fill="none" xmlns="http://www.w3.org/2000/svg">
<path d="M8.94141 1.68408H5.19141C0.503906 1.68408 0.503906 1.68408 0.503906 6.37158L0.503906 13.8716C0.503906 20.4341 0.503906 20.4341 5.19141 20.4341H12.6914C19.2539 20.4341 19.2539 20.4341 19.2539 13.8716V11.9966" stroke="white" stroke-width="1.5" stroke-linecap="round" stroke-linejoin="round"/>
<path d="M13.666 1.70301L6.27855 9.09051C5.9598 9.43738 5.74417 9.86863 5.6598 10.328L5.25667 13.1499C5.0973 13.8718 5.5473 14.5843 6.26917 14.7436C6.45667 14.7905 6.66292 14.7905 6.85042 14.7436L9.6723 14.3405C10.1317 14.2468 10.5629 14.0311 10.9098 13.7218L18.2973 6.33426C19.5723 5.05926 20.1723 3.57801 18.2973 1.70301C16.4223 -0.171992 14.941 0.428008 13.666 1.70301Z" stroke="white" stroke-width="1.5" stroke-linecap="round" stroke-linejoin="round"/>
</svg>
