<svg width="29" height="29" viewBox="0 0 29 29" fill="none" xmlns="http://www.w3.org/2000/svg">
<path d="M9.57812 24.3018H8.875C3.25 24.3018 0.4375 22.8955 0.4375 15.8643V8.83301C0.4375 3.20801 3.25 0.395508 8.875 0.395508H20.125C25.75 0.395508 28.5625 3.20801 28.5625 8.83301V15.8643C28.5625 21.4893 25.75 24.3018 20.125 24.3018H19.4219C18.9859 24.3018 18.5641 24.5127 18.2969 24.8643L16.1875 27.6768C15.5969 28.6049 14.3594 28.8861 13.4312 28.2955C13.1781 28.1408 12.9672 27.9299 12.8125 27.6768L10.7031 24.8643C10.4219 24.5268 10.0141 24.3299 9.57812 24.3018Z" stroke="#606060" stroke-width="1.5" stroke-linecap="round" stroke-linejoin="round"/>
<path d="M20.125 13.0518H20.1391" stroke="#606060" stroke-width="2" stroke-linecap="round" stroke-linejoin="round"/>
<path d="M14.5 13.0518H14.5141" stroke="#606060" stroke-width="2" stroke-linecap="round" stroke-linejoin="round"/>
<path d="M8.875 13.0518H8.88906" stroke="#606060" stroke-width="2" stroke-linecap="round" stroke-linejoin="round"/>
</svg>
