<svg width="24" height="24" viewBox="0 0 24 24" fill="none" xmlns="http://www.w3.org/2000/svg">
<path d="M12 0C5.37255 0 0 4.59052 0 10.253C0 13.914 2.2461 17.1263 5.62477 18.9403C5.44095 19.6272 4.4436 23.3595 4.40385 23.6528C4.40385 23.6528 4.38 23.873 4.51163 23.9571C4.64332 24.0411 4.79813 23.9758 4.79813 23.9758C5.17567 23.9187 9.17618 20.8735 9.86865 20.3448C10.5604 20.4509 11.2726 20.5061 12 20.5061C18.6275 20.5061 24 15.9157 24 10.253C24 4.59052 18.6275 0 12 0Z" fill="#381F1F"/>
<path fill-rule="evenodd" clip-rule="evenodd" d="M11.4366 13.8226C11.1479 13.8226 10.9271 13.6956 10.8605 13.4912L10.5177 12.5187L8.40657 12.5186L8.06359 13.4917C7.99722 13.6956 7.77649 13.8226 7.48782 13.8226C7.33594 13.8228 7.18579 13.7874 7.04772 13.7191C6.85684 13.6236 6.67339 13.3613 6.88362 12.6537L8.53962 7.93031C8.65632 7.57108 9.01062 7.20095 9.46159 7.18982C9.91377 7.20087 10.2681 7.57108 10.385 7.93104L12.0403 12.6523C12.251 13.3615 12.0675 13.624 11.8767 13.7191C11.7385 13.7874 11.5884 13.8227 11.4366 13.8226ZM5.36596 13.8326C4.98414 13.8326 4.67364 13.5112 4.67364 13.116V8.65913H3.59341C3.21879 8.65913 2.91406 8.32949 2.91406 7.9245C2.91406 7.51951 3.21886 7.18994 3.59341 7.18994H7.13851C7.51314 7.18994 7.81786 7.51951 7.81786 7.9245C7.81786 8.32949 7.51306 8.65913 7.13851 8.65913H6.05829V13.116C6.05829 13.5112 5.74779 13.8326 5.36596 13.8326ZM9.46213 9.06156L10.1536 11.1903H8.77063L9.46213 9.06156ZM13.1544 13.723C12.7885 13.723 12.491 13.4144 12.491 13.0353V7.94006C12.491 7.52629 12.808 7.18982 13.1977 7.18982C13.5873 7.18982 13.9044 7.52629 13.9044 7.94006V12.3476H15.3755C15.7415 12.3476 16.0391 12.6561 16.0391 13.0353C16.0391 13.4144 15.7415 13.723 15.3755 13.723H13.1544ZM16.3083 13.0724C16.3083 13.4862 16.6188 13.8227 17.0007 13.8227C17.1843 13.8224 17.3603 13.7432 17.4901 13.6025C17.6199 13.4618 17.693 13.2711 17.6932 13.072V11.4352L17.9334 11.1748L19.557 13.506C19.6213 13.5991 19.7048 13.6745 19.8009 13.7264C19.8969 13.7781 20.0028 13.8048 20.11 13.8043C20.2605 13.8046 20.4068 13.7515 20.5265 13.6528C20.5992 13.5937 20.6604 13.5196 20.7066 13.4347C20.7526 13.3497 20.7828 13.2557 20.7951 13.1581C20.808 13.0605 20.8029 12.9612 20.7801 12.8658C20.7573 12.7703 20.7172 12.6808 20.6622 12.6023L18.958 10.1558L20.5357 8.4464C20.6442 8.32879 20.6985 8.16657 20.6885 7.98964C20.6785 7.81425 20.6062 7.64536 20.4849 7.51402C20.3549 7.37325 20.1813 7.29247 20.0085 7.29247C19.8603 7.29247 19.7238 7.35172 19.6245 7.45941L17.693 9.55254V7.94006C17.693 7.52629 17.3825 7.18982 17.0007 7.18982C16.6188 7.18982 16.3083 7.52629 16.3083 7.94006V13.0724Z" fill="#FFE812"/>
</svg>
