<svg width="66" height="12" viewBox="0 0 66 12" fill="none" xmlns="http://www.w3.org/2000/svg">
<path opacity="0.35" d="M42.4121 3.00065C42.4121 1.80403 43.3822 0.833984 44.5788 0.833984H61.0276C62.2242 0.833984 63.1943 1.80403 63.1943 3.00065V9.00065C63.1943 10.1973 62.2242 11.1673 61.0276 11.1673H44.5788C43.3822 11.1673 42.4121 10.1973 42.4121 9.00065V3.00065Z" stroke="#111111"/>
<path opacity="0.4" d="M64.6836 4.00098V8.00098C65.4804 7.6622 65.9985 6.87411 65.9985 6.00098C65.9985 5.12784 65.4804 4.33975 64.6836 4.00098Z" fill="#111111"/>
<path d="M43.8926 3.43399C43.8926 2.82647 44.3851 2.33398 44.9926 2.33398H60.6143C61.2219 2.33398 61.7143 2.82647 61.7143 3.43398V8.56732C61.7143 9.17483 61.2219 9.66732 60.6143 9.66732H44.9926C44.3851 9.66732 43.8926 9.17483 43.8926 8.56732V3.43399Z" fill="#111111"/>
<path fill-rule="evenodd" clip-rule="evenodd" d="M29.3696 2.60838C31.5635 2.60848 33.6736 3.45992 35.2636 4.98672C35.3834 5.10459 35.5748 5.1031 35.6927 4.98338L36.8372 3.81672C36.8969 3.75599 36.9302 3.67374 36.9297 3.58816C36.9292 3.50258 36.895 3.42073 36.8346 3.36072C32.6612 -0.678832 26.0773 -0.678832 21.9039 3.36072C21.8435 3.42068 21.8092 3.50251 21.8086 3.58809C21.808 3.67367 21.8413 3.75595 21.9009 3.81672L23.0458 4.98338C23.1637 5.10328 23.3552 5.10477 23.4749 4.98672C25.0651 3.45982 27.1754 2.60838 29.3696 2.60838ZM29.3696 6.40405C30.575 6.40397 31.7374 6.85651 32.631 7.67372C32.7518 7.7897 32.9422 7.78718 33.06 7.66805L34.2032 6.50138C34.2634 6.44019 34.2969 6.35717 34.296 6.27091C34.2951 6.18464 34.26 6.10233 34.1986 6.04238C31.4776 3.486 27.2638 3.486 24.5429 6.04238C24.4814 6.10233 24.4463 6.18468 24.4455 6.27097C24.4447 6.35727 24.4782 6.44028 24.5386 6.50138L25.6815 7.66805C25.7993 7.78718 25.9897 7.7897 26.1105 7.67372C27.0035 6.85705 28.1649 6.40455 29.3696 6.40405ZM31.6597 8.95787C31.6614 9.04437 31.6278 9.12778 31.5666 9.18838L29.5891 11.204C29.5311 11.2633 29.452 11.2966 29.3696 11.2966C29.2871 11.2966 29.2081 11.2633 29.1501 11.204L27.1722 9.18838C27.1111 9.12773 27.0775 9.0443 27.0793 8.9578C27.0811 8.87129 27.1182 8.78937 27.1818 8.73138C28.4447 7.6525 30.2944 7.6525 31.5574 8.73138C31.6209 8.78942 31.6579 8.87136 31.6597 8.95787Z" fill="#111111"/>
<path fill-rule="evenodd" clip-rule="evenodd" d="M15.8416 0.666992H14.8515C14.3047 0.666992 13.8614 1.11471 13.8614 1.66699V10.3337C13.8614 10.8859 14.3047 11.3337 14.8515 11.3337H15.8416C16.3884 11.3337 16.8317 10.8859 16.8317 10.3337V1.66699C16.8317 1.11471 16.3884 0.666992 15.8416 0.666992ZM10.231 3.00033H11.2211C11.7679 3.00033 12.2112 3.44804 12.2112 4.00033V10.3337C12.2112 10.8859 11.7679 11.3337 11.2211 11.3337H10.231C9.6842 11.3337 9.24092 10.8859 9.24092 10.3337V4.00033C9.24092 3.44804 9.6842 3.00033 10.231 3.00033ZM6.60065 5.33366H5.61056C5.06374 5.33366 4.62046 5.78137 4.62046 6.33366V10.3337C4.62046 10.8859 5.06374 11.3337 5.61056 11.3337H6.60065C7.14747 11.3337 7.59075 10.8859 7.59075 10.3337V6.33366C7.59075 5.78137 7.14747 5.33366 6.60065 5.33366ZM1.9802 7.33366H0.990098C0.443282 7.33366 0 7.78137 0 8.33366V10.3337C0 10.8859 0.443282 11.3337 0.990098 11.3337H1.9802C2.52701 11.3337 2.97029 10.8859 2.97029 10.3337V8.33366C2.97029 7.78137 2.52701 7.33366 1.9802 7.33366Z" fill="#111111"/>
</svg>
