<svg width="36" height="32" viewBox="0 0 36 32" fill="none" xmlns="http://www.w3.org/2000/svg">
<path d="M17.2989 13.8403C18.8395 13.671 20.9382 14.2073 22.1946 15.1565C22.7458 15.5729 27.6587 21.1904 28.1038 21.8608C30.87 26.0175 26.2516 31.6491 21.8454 29.5355C16.2889 25.4741 14.9161 31.1551 10.8317 29.7507C7.55532 28.6251 6.06263 24.6025 8.1031 21.6773C8.34618 21.328 12.9886 15.9116 13.2762 15.6399C14.293 14.6837 15.9329 13.9885 17.2955 13.8368L17.2989 13.8403Z" fill="#C9987B" stroke="#766F6F" stroke-width="2.55" stroke-linecap="round" stroke-linejoin="round"/>
<path d="M22.3692 2.03745C25.7107 1.04592 27.7956 8.32891 24.2043 10.8307C20.2295 13.6006 17.7953 3.39596 22.3692 2.03745Z" fill="#C9987B" stroke="#76706F" stroke-width="2.55" stroke-linecap="round" stroke-linejoin="round"/>
<path d="M12.5785 2.03743C16.6902 0.996497 17.6728 10.5837 13.3659 11.2259C9.5794 11.7904 8.61051 3.03955 12.5785 2.03743Z" fill="#C9987B" stroke="#76706F" stroke-width="2.55" stroke-linecap="round" stroke-linejoin="round"/>
<path d="M31.2854 9.51442C35.2431 8.95337 36.0305 18.0465 31.8092 18.7028C27.8892 19.3133 27.1154 10.1037 31.2854 9.51442Z" fill="#C9987B" stroke="#766F6E" stroke-width="2.55" stroke-linecap="round" stroke-linejoin="round"/>
<path d="M4.18719 9.51462C8.20307 8.9077 8.92545 18.1773 4.711 18.703C0.790974 19.1935 0.0720179 10.1357 4.18719 9.51462Z" fill="#C9987B" stroke="#766F6E" stroke-width="2.55" stroke-linecap="round" stroke-linejoin="round"/>
</svg>
