<svg width="38" height="35" viewBox="0 0 38 35" fill="none" xmlns="http://www.w3.org/2000/svg">
<path d="M27.6323 31.526C27.6118 31.5329 27.5878 31.5363 27.5673 31.5431C26.6361 31.7623 9.34345 31.7109 8.40539 31.5192C8.18285 31.4747 7.98085 31.3891 7.77201 31.3035C4.33471 29.9032 1.74306 25.9935 0.917969 22.474L34.9896 22.385C34.2947 25.3293 32.6103 28.075 30.2343 29.9717C29.7207 30.3825 28.2075 31.3754 27.6323 31.526Z" fill="#E87046"/>
<path d="M26.3005 10.512C26.9784 10.7105 27.4269 10.9194 28.0363 11.2617C28.0636 11.2754 28.091 11.2891 28.115 11.3028C28.5464 11.5527 28.7826 11.7102 29.1797 12.0149C29.6145 12.3504 30.2993 12.9427 30.6211 13.357C30.6416 13.3809 30.6622 13.4049 30.6793 13.4289C31.4838 14.5005 32.172 16.2328 32.3089 17.5714L32.3295 17.9446C30.5321 17.9206 26.9373 18.0953 26.2149 18.0131C24.8865 17.8624 24.6024 17.4105 23.9416 17.4722C22.0415 18.2219 18.4262 17.9515 15.8859 17.9754L15.9441 17.5714C16.218 16.2807 16.5432 15.2913 17.2348 14.1547C19.1691 10.9776 22.6749 9.45065 26.3005 10.512Z" fill="#EDBF5A"/>
<path d="M17.2354 14.1546C16.5438 15.2878 16.222 16.2806 15.9447 17.5713L15.8865 17.9753C15.8557 17.9753 15.8283 17.9753 15.7975 17.9753C11.6173 18.0198 7.43364 17.9103 3.25 18.0027V17.5679C4.32843 10.7721 12.5793 8.8617 16.941 13.9697L17.2354 14.1546Z" fill="#B0D6BE"/>
<path d="M27.6326 31.5259C27.612 31.5327 27.5881 31.5362 27.5675 31.543V31.9162C27.5812 33.3199 26.8828 34.0354 25.5168 34.275C24.7704 34.4051 11.1411 34.4051 10.3947 34.275C9.039 34.0388 8.25499 33.3609 8.36112 31.9162L8.40563 31.519C9.3437 31.7108 26.6329 31.7621 27.5675 31.543C27.5915 31.5362 27.612 31.5327 27.6326 31.5259Z" fill="#E87046"/>
<path d="M30.6792 13.4288C30.6621 13.4049 30.6381 13.3809 30.621 13.3569C30.2992 12.9427 29.6145 12.3504 29.1797 12.0149L29.4159 11.7376L35.777 3.30181L36.0303 3.26758L37.4237 4.27069L37.4614 4.51719L30.9189 13.0865L30.621 13.3604C30.6416 13.3843 30.6621 13.4083 30.6792 13.4323V13.4288Z" fill="#E87046"/>
<path d="M28.1153 11.3027C28.0879 11.289 28.0605 11.2754 28.0365 11.2617C27.4271 10.9193 26.9787 10.7105 26.3008 10.5119L26.4377 10.1148L31.2993 1.37772C31.5286 1.19627 33.0795 2.21308 33.0384 2.51778L28.2728 10.9912L28.0365 11.2651C28.0639 11.2788 28.0913 11.2925 28.1153 11.3062V11.3027Z" fill="#E87046"/>
<path d="M26.4355 10.1148L31.2971 1.37772C31.5264 1.19627 33.0773 2.21308 33.0363 2.51778L28.2706 10.9912" stroke="#385255" stroke-linecap="round" stroke-linejoin="round"/>
<path d="M32.3082 17.5712C32.1712 16.2326 31.4797 14.5002 30.6786 13.4286C30.6614 13.4047 30.6375 13.3807 30.6204 13.3567C30.2985 12.9425 29.6138 12.3502 29.179 12.0147C28.7819 11.71 28.5491 11.5525 28.1143 11.3026C28.0869 11.2889 28.0595 11.2752 28.0355 11.2615C27.4261 10.9191 26.9776 10.7103 26.2998 10.5117C22.6742 9.45041 19.1684 10.9773 17.2341 14.1544C16.5425 15.2877 16.2207 16.2805 15.9434 17.5712" stroke="#385255" stroke-linecap="round" stroke-linejoin="round"/>
<path d="M29.4141 11.7376L35.7751 3.30182L36.025 3.26416L37.4184 4.26728L37.4561 4.51378L30.917 13.0831" stroke="#385255" stroke-linecap="round" stroke-linejoin="round"/>
<path d="M3.24414 17.5713C4.326 10.7755 12.5769 8.86512 16.9385 13.9731" stroke="#385255" stroke-linecap="round" stroke-linejoin="round"/>
<path d="M7.77101 31.2999C4.33371 29.8997 1.74206 25.9899 0.916974 22.4705C0.752641 21.7618 0.334954 18.6874 0.673891 18.1875C0.930661 17.8109 2.30011 18.0232 3.24845 18.0027C7.43209 17.9102 11.6157 18.0198 15.7959 17.9753C15.8267 17.9753 15.8541 17.9753 15.885 17.9753C18.4253 17.9479 22.0406 18.2184 23.9407 17.472C24.6015 17.4104 24.8856 17.8657 26.214 18.0129C26.9363 18.0951 30.5311 17.9205 32.3285 17.9445C32.7496 17.9513 35.1701 17.8589 35.2865 18.054C35.355 19.6528 35.3618 20.8134 34.9886 22.3849C34.2937 25.3292 32.6093 28.0749 30.2333 29.9716C29.7197 30.3824 28.2065 31.3753 27.6313 31.5259C27.6108 31.5327 27.5868 31.5362 27.5663 31.543C26.6351 31.7621 9.34246 31.7108 8.40439 31.519C8.18186 31.4745 7.97985 31.3889 7.77101 31.3034V31.2999Z" stroke="#385255" stroke-linecap="round" stroke-linejoin="round"/>
<path d="M29.9381 17.602C28.6508 10.7616 19.5475 10.7685 18.291 17.6123" stroke="#385255" stroke-linecap="round" stroke-linejoin="round"/>
<path d="M15.7645 16.2807C12.9948 11.8266 6.97955 12.5319 5.46289 17.5543" stroke="#385255" stroke-linecap="round" stroke-linejoin="round"/>
<path d="M27.5979 17.5884C26.5331 13.8053 21.7435 13.7334 20.6582 17.5199" stroke="#385255" stroke-linecap="round" stroke-linejoin="round"/>
<path d="M13.7449 17.5131C12.4987 14.9865 9.13332 14.9797 7.93164 17.52" stroke="#385255" stroke-linecap="round" stroke-linejoin="round"/>
<path d="M0.955078 20.7246H34.9583" stroke="#385255" stroke-linecap="round" stroke-linejoin="round"/>
<path d="M8.35917 31.9128C8.25304 33.3576 9.03704 34.0355 10.3928 34.2717C11.1391 34.4018 24.7685 34.4018 25.5148 34.2717C26.8808 34.0321 27.5758 33.3165 27.5621 31.9128" stroke="#385255" stroke-linecap="round" stroke-linejoin="round"/>
</svg>
