<svg width="52" height="24" viewBox="0 0 52 24" fill="none" xmlns="http://www.w3.org/2000/svg">
<path d="M9.9132 1.1228H41.5911C53.3546 2.14477 54.483 20.3919 42.4292 22.8805L10.0529 22.9607C-1.7873 21.1175 -1.92972 3.16673 9.9132 1.12588V1.1228Z" fill="#E27356" stroke="#264F6E" stroke-linecap="round" stroke-linejoin="round"/>
<path d="M36.6809 3.73186C36.7083 4.54387 36.6946 5.35589 36.6946 6.16791C35.8126 6.24818 33.3997 6.05676 32.9533 6.16791C32.9314 6.17408 32.8437 6.27596 32.8492 6.32536C32.0248 5.71712 30.6252 6.07219 30.3322 7.23309C30.1267 8.04511 30.4444 8.38782 30.3322 8.6904H27.0811L26.9414 6.24818L15.3477 6.20805C15.3532 5.87459 15.3066 3.90167 15.3916 3.80287L15.4326 3.772C22.5044 3.67937 29.579 3.69172 36.6508 3.68555L36.6781 3.73186H36.6809Z" fill="#6CA5CF"/>
<path d="M36.7004 17.8726C36.6949 18.2122 36.7442 20.2592 36.6593 20.3549L36.6182 20.3858L15.4083 20.2005H15.3371C15.3316 19.4348 15.348 18.6722 15.3371 17.9065L36.7004 17.8726Z" fill="#6CA5CF"/>
<path d="M36.6172 20.3891L36.6583 20.3582C36.7432 20.2625 36.6939 18.2155 36.6994 17.8759C36.7541 13.9794 36.6993 10.0676 36.6939 6.17113C36.6939 5.35912 36.7048 4.54711 36.6802 3.73509L36.6528 3.68878C36.7678 3.68878 37.0582 3.49118 37.0828 3.49118C40.3065 3.49118 43.5794 3.10833 46.1731 5.54129C51.5742 10.6048 48.2136 19.8488 42.0484 20.5188C41.0131 20.6299 37.8059 20.5497 36.661 20.3613L36.6199 20.3922L36.6172 20.3891Z" fill="#F0A381"/>
<path d="M41.3152 9.19372C42.0054 9.28017 41.9479 8.43419 42.2218 7.94019C42.6518 7.15905 43.09 7.18993 42.8901 6.62183C44.0623 6.76076 44.6868 8.2582 44.0404 9.36662C43.3776 10.509 41.8603 10.4133 41.3125 9.19372H41.3152Z" fill="#65B840"/>
<path d="M41.7313 17.0915C41.7093 16.687 41.8655 16.0356 42.0106 15.6651C42.4817 14.4548 43.1336 14.5289 42.9884 13.9546C45.7136 14.5103 43.6896 18.8915 41.7285 17.0915H41.7313Z" fill="#E1DD26"/>
<path d="M38.5262 13.47C38.518 13.2384 38.5262 12.8926 38.5837 12.6703C38.9206 11.3581 39.8655 10.8209 39.5998 10.3362C42.3661 10.5214 40.6872 15.4306 38.5234 13.47H38.5262Z" fill="#E02C2F"/>
<path d="M44.9598 13.4454C45.0994 12.6704 45.3021 11.8955 45.7184 11.2533C45.9512 10.8951 46.2607 10.9538 46.258 10.3641C46.2334 10.3579 46.2087 10.3548 46.1813 10.3486C46.206 10.3517 46.2306 10.3579 46.258 10.3641C48.8024 10.9414 46.9674 15.3041 44.957 13.4454H44.9598Z" fill="#2999CD"/>
<path d="M46.1831 10.3487C46.2078 10.3517 46.2324 10.3579 46.2598 10.3641C46.2598 10.9538 45.9503 10.8921 45.7203 11.2533C45.304 11.8955 45.1013 12.6705 44.9616 13.4454C43.9455 12.5038 44.3673 10.642 45.6518 10.3579C45.8243 10.3209 46.0133 10.3209 46.1859 10.3487H46.1831Z" fill="#FEFEFF"/>
<path d="M42.9901 13.9547C43.1326 14.529 42.4835 14.4549 42.0124 15.6652C41.8672 16.0357 41.7111 16.6872 41.733 17.0916C40.5744 16.0295 41.2181 14.001 42.6423 13.8899C42.6587 13.8899 42.9326 13.9424 42.9929 13.9516L42.9901 13.9547Z" fill="#FEFEFF"/>
<path d="M39.6028 10.3362C39.8684 10.821 38.9208 11.3613 38.5866 12.6704C38.5291 12.8927 38.5182 13.2385 38.5291 13.4701C37.4911 12.5284 37.9156 10.6357 39.2193 10.3579C39.3453 10.3301 39.4768 10.327 39.6055 10.3362H39.6028Z" fill="#FEFEFF"/>
<path d="M42.8899 6.62182C43.0899 7.18683 42.6516 7.15904 42.2216 7.94018C41.9478 8.43418 42.0053 9.28016 41.3151 9.19371C40.8412 8.14087 41.4 6.85646 42.4325 6.63725C42.5832 6.60637 42.742 6.60329 42.8927 6.62182H42.8899Z" fill="#FEFEFF"/>
<path d="M15.3934 3.79971C15.3057 3.89851 15.355 5.87143 15.3495 6.20488C15.2865 10.0951 15.3002 14.0163 15.3386 17.9096C15.3468 18.6753 15.3304 19.4379 15.3386 20.2036H15.4098C15.3906 20.2716 15.1496 20.5896 15.1277 20.5958C14.8812 20.6575 10.5784 20.568 10.0936 20.5155C5.10337 19.9999 1.97831 14.2571 3.69559 8.96821C4.63229 6.0783 7.23696 3.86455 9.95393 3.56815C10.4524 3.51257 14.8784 3.41687 15.1277 3.48788C15.2071 3.50949 15.3797 3.67621 15.4399 3.77193L15.3988 3.8028L15.3934 3.79971Z" fill="#F0A381"/>
<path d="M7.43677 7.08798C11.3671 6.95522 10.1127 6.50136 10.5591 10.2496L13.3254 10.3299C13.5993 14.9889 13.1145 13.0808 11.0329 13.5131C10.8494 13.5501 10.6358 13.5471 10.5153 13.7323C10.3729 13.9515 10.4112 16.4493 10.5372 16.9155L10.5509 17.002L7.55181 16.9927L7.42308 13.4297L4.55273 13.4452L4.60752 10.3824C8.00647 10.5861 7.57373 10.8825 7.43404 7.08798H7.43677Z" fill="#A9C7DF" stroke="#214C6C" stroke-linecap="round" stroke-linejoin="round"/>
<path d="M32.8516 6.32518C34.8072 7.76704 32.3504 11.54 30.3346 8.69021C30.4469 8.38763 30.1292 8.04492 30.3346 7.2329C30.6276 6.072 32.0272 5.71694 32.8516 6.32518Z" fill="#FEFEFF"/>
<path d="M30.3346 8.69035C32.3504 11.5401 34.8072 7.76719 32.8516 6.32532C32.8489 6.27592 32.9338 6.17404 32.9557 6.16786C33.3994 6.05671 35.8151 6.25122 36.697 6.16786C36.6997 10.0674 36.7545 13.9762 36.7025 17.8726L15.3392 17.9066C15.3008 14.0163 15.2871 10.0921 15.3501 6.20182L26.9438 6.24196L27.0835 8.68418H30.3346V8.69035Z" fill="#A9C7DF"/>
<path d="M17.7812 6.79783C18.1181 6.84724 19.9231 6.733 20.0189 6.79783C20.0874 6.84415 20.071 7.42152 20.2298 7.50797C20.49 7.64691 22.9057 7.31963 22.9934 7.62529C22.9276 8.32925 20.8433 10.6202 20.4407 10.58C19.2466 9.65378 18.1291 8.40026 17.784 6.79475L17.7812 6.79783Z" fill="#FEFEFF"/>
<path d="M27.3636 14.1275C29.0644 13.8064 29.8505 16.014 28.6235 17.0452C26.6269 18.7187 25.2519 14.5289 27.3636 14.1275Z" fill="#DBE6EC"/>
<path d="M31.5587 14.1275C33.8128 13.6737 33.8758 17.0113 32.3283 17.3602C30.2906 17.8171 29.877 14.4672 31.5587 14.1275Z" fill="#DBE6EC"/>
<path d="M45.6498 10.3545C45.8224 10.3175 46.0114 10.3175 46.1839 10.3452C46.2086 10.3483 46.2332 10.3545 46.2606 10.3607C48.805 10.938 46.97 15.3007 44.9596 13.442C43.9435 12.5003 44.3653 10.6386 45.6498 10.3545Z" stroke="#234B6A" stroke-linecap="round" stroke-linejoin="round"/>
<path d="M42.4306 6.64019C42.5812 6.60931 42.7401 6.60622 42.8907 6.62474C44.063 6.76368 44.6874 8.26113 44.0411 9.36954C43.3782 10.5119 41.8609 10.4162 41.3131 9.19664C40.8393 8.1438 41.398 6.8594 42.4306 6.64019Z" stroke="#234B69" stroke-linecap="round" stroke-linejoin="round"/>
<path d="M15.3353 20.2007C15.3298 19.435 15.3462 18.6724 15.3353 17.9067C15.2969 14.0164 15.2832 10.0922 15.3462 6.20193C15.3517 5.86848 15.3051 3.89557 15.39 3.79677L15.4311 3.76589C22.5029 3.67327 29.5775 3.68562 36.6493 3.67944L36.6766 3.72575C36.704 4.53777 36.6903 5.34978 36.6903 6.16179C36.6931 10.0613 36.7478 13.9701 36.6958 17.8665C36.6903 18.2062 36.7396 20.2532 36.6547 20.3489L36.6136 20.3798L15.4037 20.1945H15.3325L15.3353 20.2007Z" stroke="#234C6B" stroke-linecap="round" stroke-linejoin="round"/>
<path d="M39.2154 10.3579C39.3414 10.3301 39.4729 10.327 39.6016 10.3362C42.3679 10.5215 40.6889 15.4306 38.5252 13.4701C37.4872 12.5284 37.9117 10.6357 39.2154 10.3579Z" stroke="#234B6A" stroke-linecap="round" stroke-linejoin="round"/>
<path d="M42.6391 13.8928C41.2149 14.0009 40.574 16.0294 41.7298 17.0946C43.6909 18.8946 45.7149 14.5103 42.9897 13.9577C42.9295 13.9453 42.6583 13.8928 42.6391 13.8959V13.8928Z" stroke="#234B69" stroke-linecap="round" stroke-linejoin="round"/>
</svg>
