<svg width="80" height="70" viewBox="0 0 80 70" fill="none" xmlns="http://www.w3.org/2000/svg">
<path d="M80 0H0V70H80V0Z" fill="#FEFEFF"/>
<path d="M23.9132 24.1228H55.5911C67.3546 25.1448 68.483 43.3919 56.4292 45.8805L24.0529 45.9607C12.2127 44.1175 12.0703 26.1667 23.9132 24.1259V24.1228Z" fill="#E27356" stroke="#264F6E" stroke-linecap="round" stroke-linejoin="round"/>
<path d="M50.6809 26.7319C50.7083 27.5439 50.6946 28.3559 50.6946 29.1679C49.8126 29.2482 47.3997 29.0568 46.9533 29.1679C46.9314 29.1741 46.8437 29.276 46.8492 29.3254C46.0248 28.7171 44.6252 29.0722 44.3322 30.2331C44.1267 31.0451 44.4444 31.3878 44.3322 31.6904H41.0811L40.9414 29.2482L29.3477 29.208C29.3532 28.8746 29.3066 26.9017 29.3916 26.8029L29.4326 26.772C36.5044 26.6794 43.579 26.6917 50.6508 26.6855L50.6781 26.7319H50.6809Z" fill="#6CA5CF"/>
<path d="M50.7004 40.8726C50.6949 41.2122 50.7442 43.2592 50.6593 43.3549L50.6182 43.3858L29.4083 43.2005H29.3371C29.3316 42.4348 29.348 41.6722 29.3371 40.9065L50.7004 40.8726Z" fill="#6CA5CF"/>
<path d="M50.6172 43.3891L50.6583 43.3582C50.7432 43.2625 50.6939 41.2155 50.6994 40.8759C50.7541 36.9794 50.6993 33.0676 50.6939 29.1711C50.6939 28.3591 50.7048 27.5471 50.6802 26.7351L50.6528 26.6888C50.7678 26.6888 51.0582 26.4912 51.0828 26.4912C54.3065 26.4912 57.5794 26.1083 60.1731 28.5413C65.5742 33.6048 62.2136 42.8488 56.0484 43.5188C55.0131 43.6299 51.8059 43.5497 50.661 43.3613L50.6199 43.3922L50.6172 43.3891Z" fill="#F0A381"/>
<path d="M55.3152 32.1937C56.0054 32.2802 55.9479 31.4342 56.2218 30.9402C56.6518 30.159 57.09 30.1899 56.8901 29.6218C58.0623 29.7608 58.6868 31.2582 58.0404 32.3666C57.3776 33.509 55.8603 33.4133 55.3125 32.1937H55.3152Z" fill="#65B840"/>
<path d="M55.7313 40.0915C55.7093 39.687 55.8655 39.0356 56.0106 38.6651C56.4817 37.4548 57.1336 37.5289 56.9884 36.9546C59.7136 37.5103 57.6896 41.8915 55.7285 40.0915H55.7313Z" fill="#E1DD26"/>
<path d="M52.5262 36.47C52.518 36.2384 52.5262 35.8926 52.5837 35.6703C52.9206 34.3581 53.8655 33.8209 53.5998 33.3362C56.3661 33.5214 54.6872 38.4306 52.5234 36.47H52.5262Z" fill="#E02C2F"/>
<path d="M58.9598 36.4454C59.0994 35.6704 59.3021 34.8955 59.7184 34.2533C59.9512 33.8951 60.2607 33.9538 60.258 33.3641C60.2334 33.3579 60.2087 33.3548 60.1813 33.3486C60.206 33.3517 60.2306 33.3579 60.258 33.3641C62.8024 33.9414 60.9674 38.3041 58.957 36.4454H58.9598Z" fill="#2999CD"/>
<path d="M60.1831 33.3487C60.2078 33.3517 60.2324 33.3579 60.2598 33.3641C60.2598 33.9538 59.9503 33.8921 59.7203 34.2533C59.304 34.8955 59.1013 35.6705 58.9616 36.4454C57.9455 35.5038 58.3673 33.642 59.6518 33.3579C59.8243 33.3209 60.0133 33.3209 60.1859 33.3487H60.1831Z" fill="#FEFEFF"/>
<path d="M56.9901 36.9547C57.1326 37.529 56.4835 37.4549 56.0124 38.6652C55.8672 39.0357 55.7111 39.6872 55.733 40.0916C54.5744 39.0295 55.2181 37.001 56.6423 36.8899C56.6587 36.8899 56.9326 36.9424 56.9929 36.9516L56.9901 36.9547Z" fill="#FEFEFF"/>
<path d="M53.6028 33.3362C53.8684 33.821 52.9208 34.3613 52.5866 35.6704C52.5291 35.8927 52.5182 36.2385 52.5291 36.4701C51.4911 35.5284 51.9156 33.6357 53.2193 33.3579C53.3453 33.3301 53.4768 33.327 53.6055 33.3362H53.6028Z" fill="#FEFEFF"/>
<path d="M56.8899 29.6218C57.0899 30.1868 56.6516 30.159 56.2216 30.9402C55.9478 31.4342 56.0053 32.2802 55.3151 32.1937C54.8412 31.1409 55.4 29.8565 56.4325 29.6372C56.5832 29.6064 56.742 29.6033 56.8927 29.6218H56.8899Z" fill="#FEFEFF"/>
<path d="M29.3934 26.7997C29.3057 26.8985 29.355 28.8714 29.3495 29.2049C29.2865 33.0951 29.3002 37.0163 29.3386 40.9096C29.3468 41.6753 29.3304 42.4379 29.3386 43.2036H29.4098C29.3906 43.2716 29.1496 43.5896 29.1277 43.5958C28.8812 43.6575 24.5784 43.568 24.0936 43.5155C19.1034 42.9999 15.9783 37.2571 17.6956 31.9682C18.6323 29.0783 21.237 26.8646 23.9539 26.5681C24.4524 26.5126 28.8784 26.4169 29.1277 26.4879C29.2071 26.5095 29.3797 26.6762 29.4399 26.7719L29.3988 26.8028L29.3934 26.7997Z" fill="#F0A381"/>
<path d="M21.4368 30.088C25.3671 29.9552 24.1127 29.5014 24.5591 33.2496L27.3254 33.3299C27.5993 37.9889 27.1145 36.0808 25.0329 36.5131C24.8494 36.5501 24.6358 36.5471 24.5153 36.7323C24.3729 36.9515 24.4112 39.4493 24.5372 39.9155L24.5509 40.002L21.5518 39.9927L21.4231 36.4297L18.5527 36.4452L18.6075 33.3824C22.0065 33.5861 21.5737 33.8825 21.434 30.088H21.4368Z" fill="#A9C7DF" stroke="#214C6C" stroke-linecap="round" stroke-linejoin="round"/>
<path d="M46.8516 29.3252C48.8072 30.767 46.3504 34.54 44.3346 31.6902C44.4469 31.3876 44.1292 31.0449 44.3346 30.2329C44.6276 29.072 46.0272 28.7169 46.8516 29.3252Z" fill="#FEFEFF"/>
<path d="M44.3346 31.6904C46.3504 34.5401 48.8072 30.7672 46.8516 29.3253C46.8489 29.2759 46.9338 29.174 46.9557 29.1679C47.3994 29.0567 49.8151 29.2512 50.697 29.1679C50.6997 33.0674 50.7545 36.9762 50.7025 40.8726L29.3392 40.9066C29.3008 37.0163 29.2871 33.0921 29.3501 29.2018L40.9438 29.242L41.0835 31.6842H44.3346V31.6904Z" fill="#A9C7DF"/>
<path d="M31.7812 29.7978C32.1181 29.8472 33.9231 29.733 34.0189 29.7978C34.0874 29.8441 34.071 30.4215 34.2298 30.508C34.49 30.6469 36.9057 30.3196 36.9934 30.6253C36.9276 31.3292 34.8433 33.6202 34.4407 33.58C33.2466 32.6538 32.1291 31.4003 31.784 29.7948L31.7812 29.7978Z" fill="#FEFEFF"/>
<path d="M41.3636 37.1275C43.0644 36.8064 43.8505 39.014 42.6235 40.0452C40.6269 41.7187 39.2519 37.5289 41.3636 37.1275Z" fill="#DBE6EC"/>
<path d="M45.5587 37.1275C47.8128 36.6737 47.8758 40.0113 46.3283 40.3602C44.2906 40.8171 43.877 37.4672 45.5587 37.1275Z" fill="#DBE6EC"/>
<path d="M59.6498 33.3543C59.8224 33.3172 60.0114 33.3172 60.1839 33.345C60.2086 33.3481 60.2332 33.3543 60.2606 33.3604C62.805 33.9378 60.97 38.3005 58.9596 36.4418C57.9435 35.5001 58.3653 33.6383 59.6498 33.3543Z" stroke="#234B6A" stroke-linecap="round" stroke-linejoin="round"/>
<path d="M56.4306 29.6399C56.5812 29.6091 56.7401 29.606 56.8907 29.6245C58.063 29.7634 58.6874 31.2609 58.0411 32.3693C57.3782 33.5117 55.8609 33.416 55.3131 32.1964C54.8393 31.1436 55.398 29.8592 56.4306 29.6399Z" stroke="#234B69" stroke-linecap="round" stroke-linejoin="round"/>
<path d="M29.3353 43.2005C29.3298 42.4347 29.3462 41.6721 29.3353 40.9064C29.2969 37.0162 29.2832 33.0919 29.3462 29.2017C29.3517 28.8682 29.3051 26.8953 29.39 26.7965L29.4311 26.7656C36.5029 26.673 43.5775 26.6854 50.6493 26.6792L50.6766 26.7255C50.704 27.5375 50.6903 28.3495 50.6903 29.1615C50.6931 33.0611 50.7478 36.9699 50.6958 40.8663C50.6903 41.2059 50.7396 43.2529 50.6547 43.3487L50.6136 43.3795L29.4037 43.1943H29.3325L29.3353 43.2005Z" stroke="#234C6B" stroke-linecap="round" stroke-linejoin="round"/>
<path d="M53.2154 33.3576C53.3414 33.3298 53.4729 33.3267 53.6016 33.336C56.3679 33.5212 54.6889 38.4304 52.5252 36.4698C51.4872 35.5281 51.9117 33.6355 53.2154 33.3576Z" stroke="#234B6A" stroke-linecap="round" stroke-linejoin="round"/>
<path d="M56.6391 36.8926C55.2149 37.0006 54.574 39.0291 55.7298 40.0943C57.6909 41.8943 59.7149 37.5101 56.9897 36.9574C56.9295 36.9451 56.6583 36.8926 56.6391 36.8957V36.8926Z" stroke="#234B69" stroke-linecap="round" stroke-linejoin="round"/>
</svg>
