<svg width="43" height="38" viewBox="0 0 43 38" fill="none" xmlns="http://www.w3.org/2000/svg">
<path d="M33.2838 11.4446C31.2372 12.6259 24.828 17.722 22.1711 19.7315C22.1046 19.7821 22.028 19.8249 21.9615 19.8755C21.7567 20.0312 21.5557 20.1919 21.351 20.3476C19.7434 21.5589 18.1582 22.7996 16.5046 23.9452L16.4138 23.964C16.4384 24.1078 16.4491 24.2546 16.4465 24.3999C15.7695 24.365 15.9075 25.7041 14.2812 25.834C12.6593 25.9644 11.9561 24.0681 13.0118 22.9438C13.4616 22.4622 14.1305 22.4334 13.8976 22.0105C13.8678 22.0138 13.8387 22.0127 13.8089 22.016C13.8387 22.0127 13.8685 22.0094 13.8976 22.0105C14.3165 21.9822 14.7276 22.0606 15.0987 22.2351L15.1708 22.1918C16.3571 21.1384 17.605 20.1658 18.858 19.1894C19.2254 18.9023 19.5995 18.6293 19.9687 18.3446C22.8028 16.1538 29.8854 11.0294 31.6484 9.28948L31.8359 9.51465L33.1212 11.2043L33.2863 11.4426L33.2838 11.4446Z" fill="#A2D6DA"/>
<path d="M18.8572 19.1868C17.4451 17.1871 15.4242 16.9204 13.6017 18.8371C12.7589 19.726 13.0826 21.0013 12.2074 21.4812C11.2933 21.9791 2.68496 21.0827 4.20457 28.6568C4.47291 29.9974 5.09374 30.4736 4.39055 30.6911C2.8294 28.2511 2.13546 24.8534 4.60593 22.5405C7.05268 20.2495 10.3877 21.0807 11.9177 20.2188C13.1682 19.5153 12.9344 17.5562 14.9001 16.5448C16.9461 15.4955 18.5018 16.7705 19.7884 18.1804L19.9679 18.342C19.5987 18.6267 19.2246 18.8997 18.8572 19.1868Z" fill="#F6C3B9"/>
<path d="M33.2852 11.4445L33.12 11.2062L31.8347 9.51655L31.6472 9.29138C32.1196 8.82363 32.4203 8.23103 32.8682 7.74705L36.2006 5.22363C36.5243 5.02774 38.282 5.79289 38.3662 5.93014L38.5323 8.07633L35.1633 10.6314C34.5543 10.9514 33.8799 11.1005 33.2826 11.4465L33.2852 11.4445Z" fill="#F7EE9A"/>
<path d="M18.0776 27.0965C18.0508 27.1091 18.0192 27.1099 17.9924 27.1226C16.27 27.9334 16.4187 32.2182 13.1416 34.0336C9.66918 35.9588 6.17071 33.4789 4.38773 30.6889C5.09091 30.4714 4.47008 29.9952 4.20175 28.6546C6.71286 33.14 11.1881 35.6241 15.0376 30.493C15.6135 29.7258 17.4223 25.7676 17.9905 27.1201C18.0173 27.1075 18.049 27.1066 18.0757 27.094L18.0776 27.0965Z" fill="#CD8C81"/>
<path d="M18.491 26.9598C17.5349 26.096 19.9918 26.8402 21.6177 24.8988C22.7943 23.4927 21.6257 22.0627 22.3034 21.9072C23.5387 24.8854 21.4489 26.7693 18.4954 26.9603L18.491 26.9598Z" fill="#CD8C81"/>
<path d="M22.3026 21.905C21.6268 22.0629 22.7935 23.4905 21.6169 24.8965C19.9954 26.8385 17.5341 26.0937 18.4902 26.9576C18.351 26.9976 18.2118 27.0377 18.0768 27.0939C18.0501 27.1065 18.0184 27.1074 17.9916 27.12C17.4234 25.7676 15.6146 29.7257 15.0387 30.4929C11.1892 35.6241 6.71396 33.14 4.20285 28.6546C2.68324 21.0805 11.2891 21.9788 12.2057 21.479C13.0827 21.0015 12.7546 19.7257 13.6 18.8348C15.4225 16.9181 17.4434 17.1849 18.8555 19.1846C17.6025 20.161 16.3571 21.1316 15.1682 22.1869L15.0961 22.2302C14.725 22.0557 14.3139 21.9774 13.8951 22.0056C13.8653 22.0089 13.8362 22.0078 13.8064 22.0112C9.48988 22.4337 11.9331 29.0498 15.4237 26.3944C16.0533 25.9155 16.4359 25.1599 16.4465 24.393C16.4473 24.2454 16.4385 24.101 16.4139 23.9571L16.5046 23.9384C18.1601 22.7953 19.7434 21.5521 21.351 20.3408L21.4549 20.5676C21.7931 20.8369 22.1284 21.4955 22.2963 21.902L22.3026 21.905Z" fill="#F3A193"/>
<path d="M7.2205 25.5689C7.7134 26.3709 10.8905 30.2181 10.9832 30.5153C11.1737 31.1215 10.4284 31.5916 9.97749 31.2804C9.73351 31.1137 6.5183 26.8658 6.37946 26.6036C5.98395 25.8553 6.95658 25.4716 7.2205 25.5689Z" fill="#A2D6DA" stroke="#5E5E5F" stroke-linecap="round" stroke-linejoin="round"/>
<path d="M13.8104 22.0159C13.8402 22.0126 13.8701 22.0093 13.8992 22.0104C14.132 22.4333 13.4624 22.4665 13.0133 22.9437C11.9577 24.068 12.6609 25.9643 14.2827 25.8339C15.9116 25.7021 15.7711 24.3649 16.448 24.3997C16.4393 25.169 16.0548 25.9222 15.4252 26.4011C11.9346 29.0565 9.49326 22.4429 13.8079 22.0179L13.8104 22.0159Z" fill="#6DACB5"/>
<path d="M15.1735 22.1873C16.3599 21.1339 17.6078 20.1614 18.8608 19.185C19.2281 18.8978 19.6023 18.6248 19.9715 18.3401C22.8055 16.1494 29.8881 11.0249 31.6512 9.28503C32.1235 8.81728 32.4242 8.22468 32.8721 7.7407L36.2046 5.21728C36.5282 5.0214 38.2859 5.78654 38.3701 5.92379L38.5362 8.06998L35.1672 10.625C34.5582 10.945 33.8838 11.0942 33.2865 11.4401C31.2399 12.6214 24.8307 17.7176 22.1739 19.727" stroke="#5A5D5C" stroke-linecap="round" stroke-linejoin="round"/>
<path d="M21.963 19.8755C21.7583 20.0312 21.5573 20.1918 21.3525 20.3476C19.7449 21.5589 18.1597 22.7996 16.5062 23.9452" stroke="#5A5D5C" stroke-linecap="round" stroke-linejoin="round"/>
<path d="M35.7949 5.90723L35.9385 6.09603" stroke="#5A5D5C" stroke-linecap="round" stroke-linejoin="round"/>
<path d="M36.315 9.29421L36.1913 8.99348C36.1036 8.83567 35.785 8.57084 36.0158 8.40689C36.2922 8.23919 36.5003 8.61902 36.6416 8.79415L36.7654 9.09488C36.8823 9.38143 36.4371 9.57686 36.315 9.29421Z" fill="#5A5D5C"/>
<path d="M37.4141 8.03589L38.3188 9.22527" stroke="#5A5D5C" stroke-linecap="round" stroke-linejoin="round"/>
<path d="M34.7148 6.63232L35.0422 7.26981" stroke="#5A5D5C" stroke-linecap="round" stroke-linejoin="round"/>
<path d="M33.0742 6.79224L33.9463 8.10327" stroke="#5A5D5C" stroke-linecap="round" stroke-linejoin="round"/>
<path d="M35.4969 9.99087L35.2427 9.78939" stroke="#5A5D5C" stroke-linecap="round" stroke-linejoin="round"/>
<path d="M33.1192 11.2063L31.832 9.51416" stroke="#5A5D5C" stroke-linecap="round" stroke-linejoin="round"/>
<path d="M30.4453 10.6699L31.6355 12.2345" stroke="#5A5D5C" stroke-linecap="round" stroke-linejoin="round"/>
<path d="M28.7461 11.9624L29.9363 13.527" stroke="#5A5D5C" stroke-linecap="round" stroke-linejoin="round"/>
<path d="M27.1113 13.2065L28.3015 14.7711" stroke="#5A5D5C" stroke-linecap="round" stroke-linejoin="round"/>
<path d="M25.4141 14.4971L26.6043 16.0617" stroke="#5A5D5C" stroke-linecap="round" stroke-linejoin="round"/>
<path d="M23.7793 15.7412L24.9695 17.3058" stroke="#5A5D5C" stroke-linecap="round" stroke-linejoin="round"/>
<path d="M22.2129 16.9326L23.4031 18.4972" stroke="#5A5D5C" stroke-linecap="round" stroke-linejoin="round"/>
<path d="M20.5781 18.1765L21.7683 19.7411" stroke="#5A5D5C" stroke-linecap="round" stroke-linejoin="round"/>
<path d="M21.4591 20.5725C21.7972 20.8417 22.1326 21.5003 22.3004 21.9068C23.5358 24.885 21.446 26.769 18.4925 26.9599C18.3534 27 18.2141 27.0401 18.0792 27.0963C18.0524 27.1089 18.0207 27.1098 17.994 27.1224C16.2716 27.9332 16.4202 32.218 13.1431 34.0334C9.67073 35.9587 6.17226 33.4787 4.38928 30.6887C2.82812 28.2488 2.13418 24.851 4.60466 22.5381C7.0514 20.2472 10.3864 21.0783 11.9164 20.2164C13.167 19.5129 12.9331 17.5538 14.8988 16.5424C16.9448 15.4932 18.5005 16.7681 19.7872 18.1781" stroke="#5A5D5C" stroke-linecap="round" stroke-linejoin="round"/>
<path d="M19.0078 19.3699L20.198 20.9345" stroke="#5A5D5C" stroke-linecap="round" stroke-linejoin="round"/>
<path d="M17.4434 20.5613L18.6335 22.1259" stroke="#5A5D5C" stroke-linecap="round" stroke-linejoin="round"/>
<path d="M15.4278 26.3992C16.0573 25.9203 16.44 25.1646 16.4506 24.3978C16.4513 24.2501 16.4425 24.1058 16.4179 23.9619C16.2897 23.2038 15.8009 22.5613 15.1046 22.2354C14.7335 22.0609 14.3224 21.9826 13.9036 22.0109C13.8738 22.0142 13.8447 22.0131 13.8149 22.0164C9.49838 22.439 11.9416 29.055 15.4322 26.3997L15.4278 26.3992Z" stroke="#5A5D5C" stroke-linecap="round" stroke-linejoin="round"/>
</svg>
