<svg width="50" height="27" viewBox="0 0 50 27" fill="none" xmlns="http://www.w3.org/2000/svg">
<path d="M35.2352 15.7362C35.2263 14.2719 35.3108 12.7943 35.3242 11.3256C35.3376 9.79453 34.9414 3.12295 35.7025 2.32183C36.3657 1.62307 39.4678 1.8189 39.7704 1.97913C41.07 2.67343 40.7362 4.1021 40.7896 5.28153L41.2481 5.27263C42.9482 5.45511 45.1647 4.56052 45.6809 6.75026C45.8412 7.42676 45.8946 19.9821 45.6142 20.6141C44.9021 22.2164 42.6545 21.5844 41.2525 21.62L40.7807 21.6778C40.7362 22.7193 41.03 24.2459 40.0019 24.9313C39.7615 25.0915 35.7737 26.0217 35.2752 23.6807C35.1907 23.2934 35.2485 16.9112 35.2396 15.7362H35.2352Z" fill="#949AAA"/>
<path d="M14.7889 11.3211C14.8023 12.7898 14.8869 14.2674 14.878 15.7317C14.8691 17.2272 14.9047 23.062 14.8379 23.4492C14.6599 24.4729 14.4818 24.9001 13.4048 25.1538C13.0932 25.2295 10.5875 25.1761 10.3383 25.0381C9.14548 24.4017 9.31461 22.835 9.26565 21.6778L8.74492 21.62C7.17828 21.5799 5.10426 22.2787 4.47226 20.3827C4.25863 19.7418 4.28534 7.52021 4.42776 6.86151C4.90843 4.59611 6.84893 5.42394 8.9719 5.27262L9.42142 5.28152C9.46593 4.06648 8.97636 2.70457 10.3383 1.97911C10.632 1.82334 13.7119 1.6008 14.4062 2.34407C15.1539 3.13629 14.7711 9.75445 14.7889 11.3255V11.3211Z" fill="#949AAA"/>
<path d="M35.3298 11.3211C35.3165 12.7899 35.2319 14.2675 35.2408 15.7318L34.7779 15.7229H15.3463L14.8878 15.7318C14.8967 14.2675 14.8122 12.7899 14.7988 11.3211L15.3507 11.2944H34.7824L35.3387 11.3211H35.3298Z" fill="#E6EEF7"/>
<path d="M15.3398 11.2947H34.7715" stroke="#5A6570" stroke-width="2.81" stroke-linecap="round" stroke-linejoin="round"/>
<path d="M9.36291 20.267C9.30505 15.9097 9.26499 9.50076 9.42522 5.28152C9.46973 4.06648 8.98015 2.70457 10.3421 1.97911C10.6358 1.82334 13.7157 1.6008 14.41 2.34407C15.1577 3.13629 14.7749 9.75445 14.7927 11.3255C14.8061 12.7943 14.8907 14.2719 14.8818 15.7362C14.8729 17.2316 14.9085 23.0664 14.8417 23.4537C14.6637 24.4773 14.4856 24.9046 13.4086 25.1583C13.097 25.2339 10.5913 25.1805 10.3421 25.0425C9.14927 24.4061 9.3184 22.8395 9.26944 21.6823C9.25164 21.2239 9.36736 20.7298 9.36291 20.267Z" stroke="#5A6570" stroke-width="2.81" stroke-linecap="round" stroke-linejoin="round"/>
<path d="M8.97581 5.27286C6.85283 5.42418 4.91234 4.59635 4.43166 6.86175C4.28924 7.5249 4.26254 19.742 4.47617 20.3829C5.10817 22.2789 7.18218 21.5846 8.74882 21.6202" stroke="#5A6570" stroke-width="2.81" stroke-linecap="round" stroke-linejoin="round"/>
<path d="M41.248 5.27263C42.9482 5.45511 45.1646 4.56052 45.6809 6.75026C45.8411 7.42676 45.8946 19.9821 45.6142 20.6141C44.9021 22.2164 42.6545 21.5844 41.2525 21.62" stroke="#5A6570" stroke-width="2.81" stroke-linecap="round" stroke-linejoin="round"/>
<path d="M40.7526 20.267C40.8372 16.6353 40.9351 8.46827 40.7882 5.28158C40.7348 4.0977 41.0686 2.66903 39.769 1.97917C39.4664 1.81895 36.3642 1.61867 35.7011 2.32187C34.9445 3.123 35.3361 9.79457 35.3228 11.3256C35.3094 12.7943 35.2249 14.272 35.2338 15.7362C35.2427 16.9112 35.1848 23.2935 35.2694 23.6807C35.7679 26.0218 39.7557 25.0916 39.996 24.9313C41.0241 24.2459 40.7304 22.7149 40.7749 21.6779C40.7927 21.2106 40.7437 20.7299 40.7526 20.2715V20.267Z" stroke="#5A6570" stroke-width="2.81" stroke-linecap="round" stroke-linejoin="round"/>
<path d="M3.97316 11.2321C0.875488 10.7737 0.919994 16.0478 3.96871 15.6962" stroke="#5A6570" stroke-width="2.81" stroke-linecap="round" stroke-linejoin="round"/>
<path d="M46.1387 11.2277C49.3165 10.8806 49.2675 16.119 46.1387 15.8208" stroke="#5A6570" stroke-width="2.81" stroke-linecap="round" stroke-linejoin="round"/>
<path d="M15.3398 15.7273H34.7715" stroke="#5A6570" stroke-width="2.81" stroke-linecap="round" stroke-linejoin="round"/>
</svg>
