<svg width="48" height="25" viewBox="0 0 48 25" fill="none" xmlns="http://www.w3.org/2000/svg">
<path d="M14.3398 10.2947H33.7715" stroke="#5A6570" stroke-width="2.81" stroke-linecap="round" stroke-linejoin="round"/>
<path d="M8.36291 19.267C8.30505 14.9097 8.26499 8.50076 8.42522 4.28152C8.46973 3.06648 7.98015 1.70457 9.34206 0.979111C9.6358 0.823337 12.7157 0.600803 13.41 1.34407C14.1577 2.13629 13.7749 8.75445 13.7927 10.3255C13.8061 11.7943 13.8907 13.2719 13.8818 14.7362C13.8729 16.2316 13.9085 22.0664 13.8417 22.4537C13.6637 23.4773 13.4856 23.9046 12.4086 24.1583C12.097 24.2339 9.5913 24.1805 9.34206 24.0425C8.14927 23.4061 8.3184 21.8395 8.26944 20.6823C8.25164 20.2239 8.36736 19.7298 8.36291 19.267Z" stroke="#5A6570" stroke-width="2.81" stroke-linecap="round" stroke-linejoin="round"/>
<path d="M7.97581 4.27286C5.85283 4.42418 3.91234 3.59635 3.43166 5.86175C3.28924 6.5249 3.26254 18.742 3.47617 19.3829C4.10817 21.2789 6.18218 20.5846 7.74882 20.6202" stroke="#5A6570" stroke-width="2.81" stroke-linecap="round" stroke-linejoin="round"/>
<path d="M40.248 4.27263C41.9482 4.45511 44.1646 3.56052 44.6809 5.75026C44.8411 6.42676 44.8946 18.9821 44.6142 19.6141C43.9021 21.2164 41.6545 20.5844 40.2525 20.62" stroke="#5A6570" stroke-width="2.81" stroke-linecap="round" stroke-linejoin="round"/>
<path d="M39.7526 19.267C39.8372 15.6353 39.9351 7.46827 39.7882 4.28158C39.7348 3.0977 40.0686 1.66903 38.769 0.979173C38.4664 0.818948 35.3642 0.618666 34.7011 1.32187C33.9445 2.123 34.3361 8.79457 34.3228 10.3256C34.3094 11.7943 34.2249 13.272 34.2338 14.7362C34.2427 15.9112 34.1848 22.2935 34.2694 22.6807C34.7679 25.0218 38.7557 24.0916 38.996 23.9313C40.0241 23.2459 39.7304 21.7149 39.7749 20.6779C39.7927 20.2106 39.7437 19.7299 39.7526 19.2715V19.267Z" stroke="#5A6570" stroke-width="2.81" stroke-linecap="round" stroke-linejoin="round"/>
<path d="M2.97316 10.2321C-0.124512 9.7737 -0.0800061 15.0478 2.96871 14.6962" stroke="#5A6570" stroke-width="2.81" stroke-linecap="round" stroke-linejoin="round"/>
<path d="M45.1387 10.2277C48.3165 9.88056 48.2675 15.119 45.1387 14.8208" stroke="#5A6570" stroke-width="2.81" stroke-linecap="round" stroke-linejoin="round"/>
<path d="M14.3398 14.7273H33.7715" stroke="#5A6570" stroke-width="2.81" stroke-linecap="round" stroke-linejoin="round"/>
</svg>
