<svg width="43" height="32" viewBox="0 0 43 32" fill="none" xmlns="http://www.w3.org/2000/svg">
<path d="M2.68467 3.98833C2.56142 11.7428 2.68467 19.5281 2.81135 27.2791C4.44783 27.5324 6.08091 27.0908 7.71397 27.0155C12.5858 26.7929 16.2627 26.9402 21.09 27.868C27.0915 26.5567 33.2232 26.7758 39.2796 27.4914L39.3823 27.5016C39.3241 19.6068 39.4713 11.7085 39.3926 3.81372L39.7041 3.82057C40.3306 3.9849 41.2174 3.55353 41.4536 4.3615C41.8028 5.56318 41.2242 26.2007 41.4022 29.3949C39.2454 29.7886 24.9381 29.2374 24.1507 29.5934C23.7638 29.7681 23.9247 30.4733 23.6748 30.7575C23.4146 31.0519 18.9571 31.0451 18.7277 30.9492C17.7486 30.5418 19.0255 29.8297 17.0672 29.5695C15.3178 29.3333 4.76967 29.7064 1.68158 29.6037C0.356647 29.4805 0.637376 29.3435 0.562057 27.173L0.544922 4.7963C0.551769 3.60146 1.33923 3.84111 2.29099 3.95067L2.68467 3.98833Z" fill="#EE7D5A"/>
<path d="M39.3921 3.81379C39.4709 11.7086 39.3237 19.6069 39.3819 27.5017L39.2791 27.4914C33.2228 26.7759 27.0911 26.5568 21.0895 27.868C16.2588 26.9436 12.5853 26.793 7.71352 27.0155C6.08046 27.0909 4.44738 27.5291 2.8109 27.2792C2.68423 19.5247 2.5644 11.7429 2.68423 3.9884C2.69108 3.56045 2.59866 1.12284 2.79381 1.01671C7.85732 0.718856 11.3289 0.397038 16.454 1.04067C17.9741 1.2324 19.4839 1.54052 20.9731 1.9C27.1253 0.362803 33.0105 0.530558 39.2655 1.01329L39.4537 1.19131C39.4161 2.06775 39.3853 2.94077 39.3956 3.81722L39.3921 3.81379Z" fill="#A0CEEA" stroke="#1B5A59" stroke-linecap="round" stroke-linejoin="round"/>
<path d="M8.27836 10.8287C9.4013 10.7602 17.7515 10.904 18.0253 11.4826C18.0425 11.5237 18.0425 12.318 18.0253 12.3556C17.9124 12.6124 13.2186 11.9893 12.5613 11.9619C10.4352 11.8763 8.28863 11.9756 6.17969 12.2256V11.0033C6.88153 11.0341 7.58337 10.8698 8.27836 10.8287Z" fill="#3A97C9"/>
<path d="M28.8198 10.8288C29.7339 10.7843 35.5026 10.8288 35.8997 11.0034C36.0949 11.1096 36.0538 12.0476 36.0298 12.0956C35.8895 12.3969 32.2604 11.8525 29.4291 11.9655C27.5667 12.0374 24.3999 12.6434 24.1842 12.4893C24.1157 12.4414 24.1054 11.4451 24.1842 11.3527C24.3348 11.1746 28.2857 10.8528 28.8163 10.8288H28.8198Z" fill="#3A97C9"/>
<path d="M29.2584 14.9372C30.0424 14.9064 35.8489 14.9372 36.0337 15.2419C36.0577 15.283 36.0543 16.1594 36.0337 16.2039C35.9105 16.4881 32.3054 15.9985 29.8713 16.0738C27.889 16.1354 24.4209 16.7619 24.1881 16.5976C24.1196 16.5497 24.1093 15.5466 24.1881 15.461C24.3593 15.2727 28.6833 14.9611 29.2584 14.9372Z" fill="#3A97C9"/>
<path d="M8.71566 14.9371C9.75643 14.8824 17.8019 15.0775 18.0245 15.591C18.0416 15.6321 18.0416 16.4264 18.0245 16.4641C17.9046 16.7345 12.7966 16.0909 12.1256 16.0704C9.19841 15.9813 6.4253 16.5051 6.18223 16.334C6.11375 16.286 6.10348 15.2966 6.18223 15.1973C6.26097 15.098 8.4178 14.9508 8.71566 14.9337V14.9371Z" fill="#3A97C9"/>
<path d="M8.01853 6.72051C9.12436 6.64177 17.7655 6.80953 18.0257 7.28883C18.0771 7.38127 18.2448 8.32618 17.5464 8.38096C17.3136 8.39808 14.1091 7.90508 12.9143 7.85715C10.148 7.74417 6.48134 8.18924 6.18349 8.03175C6.09105 7.9804 5.91987 7.01494 6.18349 6.89512C6.79974 6.92935 7.41256 6.7616 8.01853 6.72051Z" fill="#3A97C9"/>
<path d="M28.9086 20.5312C31.2366 20.4285 33.5818 20.5825 35.903 20.7058C36.5603 22.5579 35.297 21.7157 33.4551 21.6678C32.1918 21.6336 30.6888 21.6199 29.4358 21.6678C27.4535 21.7466 24.4065 22.3457 24.1908 22.1916C24.119 22.1403 24.0402 20.9489 24.3655 20.9694C25.8787 20.877 27.3954 20.5996 28.912 20.5312H28.9086Z" fill="#3A97C9"/>
<path d="M35.8525 7.56618C32.0249 6.93281 28.1562 7.40184 24.3184 7.69285" stroke="#3A97C9" stroke-linecap="square" stroke-linejoin="round"/>
<path d="M21.0859 2.26294V27.5257" stroke="#1B5A59" stroke-linecap="round" stroke-linejoin="round"/>
<path d="M2.29099 3.95066C1.33923 3.8411 0.551769 3.60145 0.544922 4.79629L0.562057 27.1729C0.637376 29.3401 0.356647 29.4805 1.68158 29.6037C4.76967 29.7064 15.3178 29.3332 17.0672 29.5695C19.0255 29.8331 17.7486 30.5452 18.7277 30.9492C18.9571 31.045 23.4146 31.0485 23.6748 30.7575C23.9281 30.4733 23.7638 29.7715 24.1507 29.5934C24.9347 29.2374 39.2419 29.7852 41.4022 29.3949C41.2242 26.2006 41.8062 5.56317 41.4536 4.36149C41.2174 3.55694 40.3306 3.98831 39.7041 3.82056" stroke="#1B5A59" stroke-linecap="round" stroke-linejoin="round"/>
<path d="M17.6979 22.1028C13.7676 21.5755 9.79618 21.2948 5.91039 21.9145L5.77344 20.9627C9.78932 20.3225 13.8669 20.6204 17.8245 21.1476C18.4476 21.24 18.3278 22.1747 17.6979 22.0994V22.1028Z" fill="#3A98C9"/>
</svg>
