<svg width="28" height="34" viewBox="0 0 28 34" fill="none" xmlns="http://www.w3.org/2000/svg">
<path d="M11.9054 17.861C13.5111 17.8473 15.1202 17.8542 16.7259 17.861C17.1675 17.861 17.6126 17.8371 18.0542 17.8405C18.6328 17.8405 19.2114 17.8234 19.79 17.8302L19.7626 18.1247V32.4593L19.7831 32.7879C16.1404 32.829 12.4772 32.8496 8.83789 32.8085V32.5483C8.85501 27.947 8.90294 23.3422 8.92005 18.7409C8.92005 18.5355 8.92006 18.3301 8.92348 18.1247L8.91663 17.861C9.48152 17.8542 10.0464 17.8645 10.6079 17.861C11.0393 17.8576 11.4706 17.8645 11.902 17.861H11.9054Z" fill="#F4C783"/>
<path d="M26.8126 7.37097C27.2508 8.03514 27.3569 9.32585 26.4976 9.72983C26.0697 9.93183 20.4584 9.64081 19.3286 9.81884L14.5219 13.578L10.458 13.6156C10.4854 13.5985 10.5128 13.5814 10.5334 13.5608C10.7388 13.3178 12.4129 12.479 13.1079 9.99345C12.8957 9.63739 7.82872 9.72298 7.53087 9.81884C6.8256 10.0448 6.41135 10.7021 5.87042 10.9212C5.69239 10.9931 3.71697 10.9863 3.59715 10.9041C2.99459 10.4933 4.55918 9.13412 4.41881 8.5076C3.37804 6.84031 2.27906 5.20725 1.23828 3.54338C1.65254 3.40644 3.49444 3.37905 3.73066 3.43725C3.96005 3.49545 6.54486 5.98441 7.14057 6.32334C10.9442 6.54245 20.7699 6.03234 23.4849 6.32334C25.4569 6.53561 25.8985 7.77837 26.7441 7.28538C26.7647 7.31619 26.7921 7.34358 26.8126 7.37439V7.37097Z" fill="#87ADD8"/>
<path d="M22.2085 32.805L22.2153 32.5448C22.2085 27.9434 22.2256 23.3387 22.2153 18.7374C22.8008 18.7203 24.3243 18.6792 24.7077 18.7374C24.8344 18.7545 25.3274 19.268 25.6766 18.912C25.9265 19.3434 25.9813 25.3894 25.9745 26.4302C25.9334 32.2401 26.3613 32.6543 22.5646 32.8118C22.4482 32.8152 22.3249 32.805 22.2051 32.8118L22.2085 32.805Z" fill="#F4C783"/>
<path d="M6.39521 18.6484C6.36783 23.2806 6.41576 27.9127 6.39521 32.5448L6.40891 32.8085C5.62833 32.7777 4.21096 32.9488 3.59814 32.5106C3.92338 32.0108 3.51597 31.5109 3.50912 31.4527C3.45092 30.8741 3.39614 20.3979 3.50912 19.8262C3.76247 18.556 5.42633 18.7443 6.39521 18.6484Z" fill="#F4C783"/>
<path d="M26.8127 7.37101C26.7921 7.3402 26.7647 7.31281 26.7442 7.282C25.8952 7.775 25.4569 6.53223 23.4849 6.31997C20.77 6.02896 10.9443 6.53908 7.14065 6.31997C6.54837 5.98103 3.96355 3.4955 3.73075 3.43387C3.49452 3.37225 1.65262 3.40306 1.23837 3.54C0.40643 2.21507 0.0435299 2.72861 3.86085 2.71834L7.35634 5.62156C9.51664 5.71742 11.6804 5.60786 13.8406 5.63183C15.1416 5.64552 16.4426 5.65579 17.747 5.66948C17.86 5.19018 17.6409 5.12856 17.367 4.83755C17.1787 4.63898 13.3477 1.49612 13.084 1.42764C12.9779 1.40026 10.9956 1.20168 10.8998 1.25304C10.7252 1.34205 11.1565 1.60567 10.6053 1.67756C10.6225 1.70153 10.643 1.72207 10.6635 1.74604C10.6464 1.72207 10.6259 1.70153 10.6053 1.67756C9.84189 0.708681 9.37628 0.64021 11.1189 0.554619C11.4373 0.537501 13.0909 0.605981 13.3031 0.712113C15.0389 2.20823 17.3156 3.69065 18.9418 5.21415C19.1096 5.36821 19.2294 5.37506 19.2465 5.40587C19.2568 5.42299 18.8494 5.50858 19.0206 5.7585C21.5506 5.78931 25.005 4.82728 26.7476 7.28542C26.7682 7.31624 26.7956 7.34363 26.8161 7.37444L26.8127 7.37101Z" fill="#BCD7F0"/>
<path d="M8.92347 18.7373C8.90635 23.3386 8.85842 27.9434 8.83788 32.5447V32.8049C8.39281 32.798 7.94089 32.8152 7.49239 32.8049C7.86557 31.1205 7.12265 19.3467 7.52663 18.775C7.6088 18.6586 8.70436 18.7715 8.92347 18.7339V18.7373Z" fill="#D87C7F"/>
<path d="M22.2141 18.7375C22.2244 23.3388 22.2073 27.9436 22.2141 32.5449L22.2073 32.8051C21.7622 32.8188 21.3103 32.788 20.8652 32.7948L20.9063 18.7786C20.9714 18.6896 22.019 18.7444 22.2176 18.7375H22.2141Z" fill="#D87C7F"/>
<path d="M8.92156 17.861L8.9284 18.1246C8.9284 18.33 8.92841 18.5354 8.92498 18.7409C8.70587 18.7785 7.61031 18.6655 7.52815 18.7819C7.12074 19.3537 7.86708 31.1275 7.49391 32.8119C7.13101 32.805 6.76811 32.8256 6.40521 32.8119L6.39151 32.5483C6.41205 27.9161 6.36412 23.284 6.39151 18.6519C6.39151 18.4772 6.39151 18.2992 6.39151 18.1246L6.40863 17.861C7.24399 17.837 8.08277 17.8713 8.91813 17.861H8.92156Z" fill="#E9A1A0"/>
<path d="M22.2155 18.7373C22.0169 18.7442 20.9693 18.6894 20.9042 18.7784L20.8631 32.7947C20.5037 32.8015 20.1476 32.781 19.7881 32.7844L19.7676 32.4557V18.1211L19.795 17.8267C20.5961 17.8335 21.4075 17.8267 22.2086 17.8575L22.2155 18.1245C22.2155 18.3299 22.2155 18.5353 22.2155 18.7373Z" fill="#E9A1A0"/>
<path d="M13.8364 5.63186C13.7885 5.32716 13.6173 5.27238 13.583 5.2313C12.6381 4.04673 11.5974 2.93406 10.6559 1.74607C10.6387 1.72211 10.6182 1.70156 10.5977 1.6776C11.1489 1.6057 10.7175 1.34209 10.8921 1.25307C10.9914 1.20172 12.9702 1.40029 13.0763 1.42768C13.34 1.49615 17.171 4.63559 17.3593 4.83758C17.6297 5.12859 17.8489 5.19021 17.7393 5.66952C16.4383 5.65925 15.1374 5.64556 13.833 5.63186H13.8364Z" fill="#87ADD8"/>
<path d="M18.0577 17.8371C17.6161 17.8371 17.171 17.8611 16.7294 17.8576L16.6883 17.594C16.6677 17.3373 16.9314 16.4437 16.7294 16.3033C16.5342 16.1664 12.5937 16.3684 11.9706 16.2828C11.6693 16.3478 11.8987 16.9846 11.9158 17.594L11.9055 17.8576C11.4741 17.8611 11.0428 17.8542 10.6114 17.8576L10.5703 17.594C10.6354 15.0263 10.8853 15.1872 13.1209 15.0605C16.0173 14.8928 18.5747 14.7114 18.0098 17.5084L18.0543 17.8371H18.0577Z" fill="#DFE0E0"/>
<path d="M16.7272 17.861C15.1215 17.8542 13.5125 17.8473 11.9068 17.861L11.9171 17.5974C11.9034 16.988 11.6706 16.3512 11.9718 16.2862C12.5949 16.3717 16.5355 16.1698 16.7306 16.3067C16.9326 16.4471 16.669 17.3406 16.6896 17.5974L16.7306 17.861H16.7272Z" fill="white"/>
<path d="M18.9382 5.21072C17.3086 3.68722 15.0353 2.2048 13.2995 0.708685C13.0873 0.602553 11.4337 0.534084 11.1153 0.551202C9.37265 0.640216 9.84168 0.705264 10.6017 1.67414C10.6188 1.69811 10.6394 1.71864 10.6599 1.74261C11.6014 2.9306 12.6422 4.04327 13.5871 5.22783" stroke="#203646" stroke-linecap="round" stroke-linejoin="round"/>
<path d="M10.4581 13.6157C10.4855 13.5986 10.5129 13.5815 10.5334 13.561C10.7389 13.3179 12.413 12.4791 13.108 9.99356C12.8957 9.63751 7.8288 9.72309 7.53095 9.81895C6.82569 10.0449 6.41143 10.7022 5.8705 10.9214C5.69247 10.9933 3.71706 10.9864 3.59723 10.9042C2.99468 10.4934 4.55926 9.13424 4.4189 8.50772C3.37812 6.84042 2.27914 5.20737 1.23837 3.5435C0.40643 2.21856 0.04353 2.7321 3.86085 2.72183L7.35634 5.62504C9.51664 5.7209 11.6804 5.61135 13.8406 5.63531C15.1416 5.64901 16.4426 5.65928 17.747 5.67298C18.1784 5.6764 18.596 5.75515 19.0206 5.76199C21.5506 5.79281 25.005 4.83077 26.7476 7.28892C26.7682 7.31973 26.7956 7.34712 26.8161 7.37793C27.2543 8.04211 27.3605 9.33281 26.5011 9.73679C26.0732 9.93878 20.4619 9.64778 19.3321 9.82581L14.5254 13.5849L10.4616 13.6226L10.4581 13.6157Z" stroke="#203646" stroke-linecap="round" stroke-linejoin="round"/>
<path d="M18.0098 17.5118C18.5747 14.7148 16.0173 14.8962 13.1209 15.064C10.8853 15.1941 10.6354 15.0297 10.5703 17.5974" stroke="#213A4A" stroke-linecap="round" stroke-linejoin="round"/>
<path d="M22.5642 32.8085C26.3576 32.6511 25.933 32.2368 25.9741 26.4269C25.981 25.3862 25.9262 19.3401 25.6763 18.9087C24.8443 17.4708 23.5091 17.9022 22.2082 17.8542C21.407 17.8234 20.5991 17.8337 19.7945 17.8234C19.2159 17.8166 18.6374 17.8371 18.0588 17.8337C17.6171 17.8337 17.172 17.8577 16.7304 17.8542C15.1247 17.8474 13.5156 17.8405 11.91 17.8542C11.4786 17.8577 11.0472 17.8508 10.6159 17.8542C10.051 17.8577 9.48606 17.8474 8.92459 17.8542C8.08923 17.8645 7.25045 17.8303 6.41509 17.8542C4.67247 17.9056 3.01546 17.4331 2.65598 19.7783C2.57039 20.3364 2.59093 30.5045 2.70733 31.0557C2.84085 31.6753 3.06681 32.1272 3.59747 32.5073C4.21029 32.9455 5.62766 32.7743 6.40824 32.8051C6.77115 32.8188 7.13405 32.7983 7.49695 32.8051C7.94544 32.8154 8.39736 32.7983 8.84585 32.8051C12.4886 32.8462 16.1484 32.8222 19.7911 32.7846C20.1506 32.7812 20.5066 32.7983 20.8661 32.7948C21.3146 32.788 21.7631 32.8188 22.2082 32.8051C22.328 32.8017 22.4478 32.812 22.5676 32.8051L22.5642 32.8085Z" stroke="#213A4A" stroke-linecap="round" stroke-linejoin="round"/>
<path d="M11.9171 17.5974C11.9034 16.988 11.6706 16.3512 11.9718 16.2862C12.5949 16.3717 16.5355 16.1698 16.7306 16.3067C16.9326 16.4471 16.669 17.3406 16.6896 17.5974" stroke="#213A4A" stroke-linecap="round" stroke-linejoin="round"/>
<path d="M8.9269 18.1211C8.9269 18.3265 8.9269 18.5319 8.92348 18.7373C8.90636 23.3387 8.85843 27.9434 8.83789 32.5447" stroke="#213A4A" stroke-linecap="round" stroke-linejoin="round"/>
<path d="M19.7676 18.1211V32.4591" stroke="#213A4A" stroke-linecap="round" stroke-linejoin="round"/>
<path d="M22.2146 18.1211C22.2146 18.3265 22.2146 18.5319 22.2146 18.7339C22.2248 23.3352 22.2077 27.94 22.2146 32.5413" stroke="#213A4A" stroke-linecap="round" stroke-linejoin="round"/>
<path d="M6.39346 18.1211C6.39346 18.2957 6.39346 18.4737 6.39346 18.6483C6.36607 23.2805 6.414 27.9126 6.39346 32.5447" stroke="#213A4A" stroke-linecap="round" stroke-linejoin="round"/>
<path d="M18.6306 18.6931H9.97576C9.81143 18.6931 9.51358 18.6965 9.38348 18.6965C9.29789 18.5869 9.33212 18.2548 9.45195 18.2069C9.57178 18.1727 9.82512 18.1727 9.97576 18.1692H18.6306C18.7984 18.1624 19.0243 18.1555 19.1784 18.1418C19.3701 18.2685 19.2948 18.4739 19.3051 18.6896C19.3051 18.6896 19.0517 18.6896 18.6306 18.6896V18.6931Z" fill="white"/>
</svg>
