<svg width="34" height="32" viewBox="0 0 34 32" fill="none" xmlns="http://www.w3.org/2000/svg">
<path d="M11.0827 13.4775C9.86728 15.1414 10.0795 20.0919 10.1788 22.2522C10.1891 22.4679 10.1138 22.7075 10.1275 22.8753C10.0008 22.8821 9.86385 22.8479 9.7406 22.8547C8.87101 22.9095 2.50653 23.0054 2.13678 22.9164C1.59928 22.7931 1.35962 22.6151 1.20899 22.0776C1.1234 21.766 1.13367 16.0178 1.2261 15.6104C1.50684 14.3608 2.25318 13.3645 3.35901 12.7243C4.67709 11.9643 9.59339 11.8855 10.7745 13.296L11.0792 13.4775H11.0827Z" fill="#E7B082"/>
<path d="M23.9426 22.8719C23.9803 22.4542 23.9495 16.3842 23.905 16.0452C23.792 15.1859 23.477 14.2136 22.96 13.5049L23.2476 13.2995C24.5144 11.889 29.3416 11.9335 30.7248 12.7414C31.882 13.4159 32.6454 14.4601 32.8748 15.785C32.9296 16.0897 32.9775 21.6942 32.8919 21.992C32.7447 22.5021 32.5461 22.7281 32.036 22.9027C31.6731 23.0259 25.4867 22.8239 24.3432 22.8616L23.9426 22.8753V22.8719Z" fill="#E7B082"/>
<path d="M13.1993 29.3321C15.7191 29.2363 24.3055 29.3082 26.3973 29.7704C29.6874 30.4962 22.4396 30.9652 21.9398 30.9926C19.2625 31.1432 9.83392 31.0953 7.60516 30.5544C4.39039 29.7772 12.1209 29.3732 13.1993 29.3321Z" fill="#D6D8DD"/>
<path d="M22.9085 13.4329C22.9256 13.4569 22.9393 13.4843 22.9564 13.5083C23.4768 14.2135 23.7918 15.1858 23.9013 16.0486C23.9458 16.3875 23.9766 22.4575 23.939 22.8752C23.8671 23.6763 23.9253 24.2276 23.1173 24.7206C22.5969 25.0389 11.4873 25.0389 10.9669 24.7206C10.1932 24.2481 10.1932 23.6764 10.1282 22.8787C10.1145 22.7109 10.1898 22.4747 10.1795 22.2556C10.0802 20.0953 9.86797 15.1482 11.0833 13.4809C11.8091 12.4846 13.5038 11.5945 14.7261 11.4164C14.9828 11.3788 19.0809 11.3788 19.3582 11.4164C20.7037 11.6047 22.0765 12.3476 22.9085 13.4364V13.4329Z" fill="#B9C5E5" stroke="#4C5D85" stroke-linecap="round" stroke-linejoin="round"/>
<path d="M16.4604 0.977919C16.5255 0.967648 16.5871 0.960798 16.6522 0.953951C21.9108 0.443834 22.7872 8.39002 17.5354 9.02681C12.2836 9.6636 11.236 1.73796 16.4604 0.977919Z" fill="white" stroke="#4D5E85" stroke-linecap="round" stroke-linejoin="round"/>
<path d="M6.16731 3.94275C10.2482 3.30596 11.2308 9.51294 7.13619 10.1532C3.04156 10.7934 2.07953 4.57954 6.16731 3.94275Z" fill="white" stroke="#4C5D84" stroke-linecap="round" stroke-linejoin="round"/>
<path d="M26.8859 3.95314C30.9532 3.24445 32.0453 9.43432 27.9643 10.1464C23.8834 10.8585 22.8118 4.66525 26.8859 3.95314Z" fill="white" stroke="#4C5D84" stroke-linecap="round" stroke-linejoin="round"/>
<path d="M24.3436 22.8581C25.4871 22.817 31.6701 23.0224 32.0364 22.8991C32.5466 22.7245 32.7451 22.4986 32.8923 21.9885C32.9779 21.6906 32.9266 16.0896 32.8752 15.7815C32.6458 14.4565 31.8824 13.4123 30.7252 12.7379C29.3421 11.9299 24.5148 11.8888 23.248 13.2959" stroke="#4C5D85" stroke-linecap="round" stroke-linejoin="round"/>
<path d="M10.7784 13.2959C9.59729 11.8819 4.681 11.9607 3.36291 12.7241C2.25709 13.3644 1.51075 14.3572 1.23001 15.6102C1.13757 16.0211 1.1273 21.7659 1.21289 22.0774C1.36353 22.6149 1.60318 22.7929 2.14069 22.9162C2.51044 23.0018 8.87491 22.9094 9.74451 22.8546" stroke="#4C5D85" stroke-linecap="round" stroke-linejoin="round"/>
</svg>
