<svg width="100" height="80" viewBox="0 0 100 80" fill="none" xmlns="http://www.w3.org/2000/svg">
<path d="M100 0H0V80H100V0Z" fill="#FEFEFF"/>
<path d="M49.2989 37.8403C50.8395 37.671 52.9382 38.2073 54.1946 39.1565C54.7458 39.5729 59.6587 45.1904 60.1038 45.8608C62.87 50.0175 58.2516 55.6491 53.8454 53.5355C48.2889 49.4741 46.9161 55.1551 42.8317 53.7507C39.5553 52.6251 38.0626 48.6025 40.1031 45.6773C40.3462 45.328 44.9886 39.9116 45.2762 39.6399C46.293 38.6837 47.9329 37.9885 49.2955 37.8368L49.2989 37.8403Z" fill="#C9987B" stroke="#766F6F" stroke-width="2.55" stroke-linecap="round" stroke-linejoin="round"/>
<path d="M54.3692 26.0375C57.7107 25.0459 59.7956 32.3289 56.2043 34.8307C52.2295 37.6006 49.7953 27.396 54.3692 26.0375Z" fill="#C9987B" stroke="#76706F" stroke-width="2.55" stroke-linecap="round" stroke-linejoin="round"/>
<path d="M44.5785 26.0374C48.6902 24.9965 49.6728 34.5837 45.3659 35.2259C41.5794 35.7904 40.6105 27.0395 44.5785 26.0374Z" fill="#C9987B" stroke="#76706F" stroke-width="2.55" stroke-linecap="round" stroke-linejoin="round"/>
<path d="M63.2854 33.5144C67.2431 32.9534 68.0305 42.0465 63.8092 42.7028C59.8892 43.3133 59.1154 34.1037 63.2854 33.5144Z" fill="#C9987B" stroke="#766F6E" stroke-width="2.55" stroke-linecap="round" stroke-linejoin="round"/>
<path d="M36.1872 33.5146C40.2031 32.9077 40.9255 42.1773 36.711 42.703C32.791 43.1935 32.072 34.1357 36.1872 33.5146Z" fill="#C9987B" stroke="#766F6E" stroke-width="2.55" stroke-linecap="round" stroke-linejoin="round"/>
</svg>
