<svg width="100" height="78" viewBox="0 0 100 78" fill="none" xmlns="http://www.w3.org/2000/svg">
<path d="M100 0H0V77.6199H100V0Z" fill="white"/>
<path d="M44.0827 39.4775C42.8673 41.1414 43.0795 46.0919 43.1788 48.2522C43.1891 48.4679 43.1138 48.7075 43.1275 48.8753C43.0008 48.8821 42.8639 48.8479 42.7406 48.8547C41.871 48.9095 35.5065 49.0054 35.1368 48.9164C34.5993 48.7931 34.3596 48.6151 34.209 48.0776C34.1234 47.766 34.1337 42.0178 34.2261 41.6104C34.5068 40.3608 35.2532 39.3645 36.359 38.7243C37.6771 37.9643 42.5934 37.8855 43.7745 39.296L44.0792 39.4775H44.0827Z" fill="#E7B082"/>
<path d="M56.9407 48.8719C56.9783 48.4542 56.9475 42.3842 56.903 42.0452C56.79 41.1859 56.4751 40.2136 55.9581 39.5049L56.2457 39.2995C57.5124 37.889 62.3397 37.9335 63.7228 38.7414C64.88 39.4159 65.6435 40.4601 65.8728 41.785C65.9276 42.0897 65.9755 47.6942 65.89 47.992C65.7427 48.5021 65.5442 48.7281 65.0341 48.9027C64.6712 49.0259 58.4847 48.8239 57.3412 48.8616L56.9407 48.8753V48.8719Z" fill="#E7B082"/>
<path d="M46.1974 55.3321C48.7171 55.2363 57.3035 55.3082 59.3954 55.7704C62.6854 56.4962 55.4377 56.9652 54.9378 56.9926C52.2606 57.1432 42.832 57.0953 40.6032 56.5544C37.3884 55.7772 45.1189 55.3732 46.1974 55.3321Z" fill="#D6D8DD"/>
<path d="M55.9065 39.4332C55.9236 39.4571 55.9373 39.4845 55.9544 39.5085C56.4748 40.2138 56.7898 41.1861 56.8994 42.0488C56.9439 42.3877 56.9747 48.4578 56.937 48.8755C56.8651 49.6766 56.9233 50.2278 56.1154 50.7208C55.595 51.0392 44.4854 51.0392 43.965 50.7208C43.1913 50.2483 43.1913 49.6766 43.1262 48.8789C43.1125 48.7111 43.1878 48.4749 43.1776 48.2558C43.0783 46.0955 42.866 41.1484 44.0814 39.4811C44.8072 38.4848 46.5019 37.5947 47.7241 37.4167C47.9809 37.379 52.0789 37.379 52.3562 37.4167C53.7017 37.605 55.0746 38.3479 55.9065 39.4366V39.4332Z" fill="#B9C5E5" stroke="#4C5D85" stroke-linecap="round" stroke-linejoin="round"/>
<path d="M49.4604 26.9779C49.5255 26.9676 49.5871 26.9608 49.6522 26.954C54.9108 26.4438 55.7872 34.39 50.5354 35.0268C45.2836 35.6636 44.236 27.738 49.4604 26.9779Z" fill="white" stroke="#4D5E85" stroke-linecap="round" stroke-linejoin="round"/>
<path d="M39.1654 29.9427C43.2463 29.306 44.2289 35.5129 40.1342 36.1532C36.0396 36.7934 35.0776 30.5795 39.1654 29.9427Z" fill="white" stroke="#4C5D84" stroke-linecap="round" stroke-linejoin="round"/>
<path d="M59.8859 29.9531C63.9532 29.2445 65.0453 35.4343 60.9643 36.1464C56.8834 36.8585 55.8118 30.6652 59.8859 29.9531Z" fill="white" stroke="#4C5D84" stroke-linecap="round" stroke-linejoin="round"/>
<path d="M57.3436 48.8583C58.4871 48.8172 64.6701 49.0226 65.0364 48.8994C65.5466 48.7248 65.7451 48.4988 65.8923 47.9887C65.9779 47.6908 65.9266 42.0898 65.8752 41.7817C65.6458 40.4568 64.8824 39.4126 63.7252 38.7381C62.3421 37.9302 57.5148 37.8891 56.248 39.2962" stroke="#4C5D85" stroke-linecap="round" stroke-linejoin="round"/>
<path d="M43.7784 39.2961C42.5973 37.8822 37.681 37.9609 36.3629 38.7244C35.2571 39.3646 34.5107 40.3574 34.23 41.6105C34.1376 42.0213 34.1273 47.7661 34.2129 48.0777C34.3635 48.6152 34.6032 48.7932 35.1407 48.9164C35.5104 49.002 41.8749 48.9096 42.7445 48.8548" stroke="#4C5D85" stroke-linecap="round" stroke-linejoin="round"/>
</svg>
