<svg width="100" height="78" viewBox="0 0 100 78" fill="none" xmlns="http://www.w3.org/2000/svg">
<path d="M100 0H0V77.6199H100V0Z" fill="white"/>
<path d="M47.9074 39.861C49.5131 39.8473 51.1221 39.8542 52.7278 39.861C53.1695 39.861 53.6145 39.8371 54.0562 39.8405C54.6348 39.8405 55.2134 39.8234 55.7919 39.8302L55.7646 40.1247V54.4593L55.7851 54.7879C52.1424 54.829 48.4791 54.8496 44.8398 54.8085V54.5483C44.857 49.947 44.9049 45.3422 44.922 40.7409C44.922 40.5355 44.922 40.3301 44.9254 40.1247L44.9186 39.861C45.4835 39.8542 46.0484 39.8645 46.6098 39.861C47.0412 39.8576 47.4726 39.8645 47.904 39.861H47.9074Z" fill="#F4C783"/>
<path d="M62.8126 29.371C63.2508 30.0351 63.3569 31.3258 62.4976 31.7298C62.0697 31.9318 56.4584 31.6408 55.3286 31.8188L50.5219 35.578L46.458 35.6156C46.4854 35.5985 46.5128 35.5814 46.5334 35.5608C46.7388 35.3178 48.4129 34.479 49.1079 31.9934C48.8957 31.6374 43.8287 31.723 43.5309 31.8188C42.8256 32.0448 42.4113 32.7021 41.8704 32.9212C41.6924 32.9931 39.717 32.9863 39.5971 32.9041C38.9946 32.4933 40.5592 31.1341 40.4188 30.5076C39.378 28.8403 38.2791 27.2073 37.2383 25.5434C37.6525 25.4064 39.4944 25.379 39.7307 25.4372C39.96 25.4955 42.5449 27.9844 43.1406 28.3233C46.9442 28.5425 56.7699 28.0323 59.4849 28.3233C61.4569 28.5356 61.8985 29.7784 62.7441 29.2854C62.7647 29.3162 62.7921 29.3436 62.8126 29.3744V29.371Z" fill="#87ADD8"/>
<path d="M58.2085 54.805L58.2153 54.5448C58.2085 49.9434 58.2256 45.3387 58.2153 40.7374C58.8008 40.7203 60.3243 40.6792 60.7077 40.7374C60.8344 40.7545 61.3274 41.268 61.6766 40.912C61.9265 41.3434 61.9813 47.3894 61.9745 48.4302C61.9334 54.2401 62.3613 54.6543 58.5646 54.8118C58.4482 54.8152 58.3249 54.805 58.2051 54.8118L58.2085 54.805Z" fill="#F4C783"/>
<path d="M42.3952 40.6484C42.3678 45.2806 42.4158 49.9127 42.3952 54.5448L42.4089 54.8085C41.6283 54.7777 40.211 54.9488 39.5981 54.5106C39.9234 54.0108 39.516 53.5109 39.5091 53.4527C39.4509 52.8741 39.3961 42.3979 39.5091 41.8262C39.7625 40.556 41.4263 40.7443 42.3952 40.6484Z" fill="#F4C783"/>
<path d="M62.8127 29.371C62.7921 29.3402 62.7647 29.3128 62.7442 29.282C61.8952 29.775 61.4569 28.5322 59.4849 28.32C56.77 28.029 46.9443 28.5391 43.1407 28.32C42.5484 27.981 39.9636 25.4955 39.7307 25.4339C39.4945 25.3722 37.6526 25.4031 37.2384 25.54C36.4064 24.2151 36.0435 24.7286 39.8608 24.7183L43.3563 27.6216C45.5166 27.7174 47.6804 27.6079 49.8406 27.6318C51.1416 27.6455 52.4426 27.6558 53.747 27.6695C53.86 27.1902 53.6409 27.1286 53.367 26.8376C53.1787 26.639 49.3477 23.4961 49.084 23.4276C48.9779 23.4003 46.9956 23.2017 46.8998 23.253C46.7252 23.3421 47.1565 23.6057 46.6053 23.6776C46.6225 23.7015 46.643 23.7221 46.6635 23.746C46.6464 23.7221 46.6259 23.7015 46.6053 23.6776C45.8419 22.7087 45.3763 22.6402 47.1189 22.5546C47.4373 22.5375 49.0909 22.606 49.3031 22.7121C51.0389 24.2082 53.3156 25.6906 54.9418 27.2141C55.1096 27.3682 55.2294 27.3751 55.2465 27.4059C55.2568 27.423 54.8494 27.5086 55.0206 27.7585C57.5506 27.7893 61.005 26.8273 62.7476 29.2854C62.7682 29.3162 62.7956 29.3436 62.8161 29.3744L62.8127 29.371Z" fill="#BCD7F0"/>
<path d="M44.9254 40.7376C44.9083 45.3389 44.8604 49.9436 44.8398 54.5449V54.8051C44.3948 54.7983 43.9428 54.8154 43.4943 54.8051C43.8675 53.1207 43.1246 41.347 43.5286 40.7752C43.6108 40.6588 44.7063 40.7718 44.9254 40.7341V40.7376Z" fill="#D87C7F"/>
<path d="M58.2141 40.7375C58.2244 45.3388 58.2073 49.9436 58.2141 54.5449L58.2073 54.8051C57.7622 54.8188 57.3103 54.788 56.8652 54.7948L56.9063 40.7786C56.9714 40.6896 58.019 40.7444 58.2176 40.7375H58.2141Z" fill="#D87C7F"/>
<path d="M44.9216 39.861L44.9284 40.1246C44.9284 40.33 44.9284 40.5354 44.925 40.7409C44.7059 40.7785 43.6103 40.6655 43.5281 40.7819C43.1207 41.3537 43.8671 53.1275 43.4939 54.8119C43.131 54.805 42.7681 54.8256 42.4052 54.8119L42.3915 54.5483C42.4121 49.9161 42.3641 45.284 42.3915 40.6519C42.3915 40.4772 42.3915 40.2992 42.3915 40.1246L42.4086 39.861C43.244 39.837 44.0828 39.8713 44.9181 39.861H44.9216Z" fill="#E9A1A0"/>
<path d="M58.2155 40.7373C58.0169 40.7442 56.9693 40.6894 56.9042 40.7784L56.8631 54.7947C56.5037 54.8015 56.1476 54.781 55.7881 54.7844L55.7676 54.4557V40.1211L55.795 39.8267C56.5961 39.8335 57.4075 39.8267 58.2086 39.8575L58.2155 40.1245C58.2155 40.3299 58.2155 40.5353 58.2155 40.7373Z" fill="#E9A1A0"/>
<path d="M49.8383 27.6319C49.7904 27.3272 49.6192 27.2724 49.585 27.2313C48.6401 26.0467 47.5993 24.9341 46.6578 23.7461C46.6407 23.7221 46.6202 23.7016 46.5996 23.6776C47.1508 23.6057 46.7194 23.3421 46.894 23.2531C46.9933 23.2017 48.9722 23.4003 49.0783 23.4277C49.3419 23.4962 53.1729 26.6356 53.3612 26.8376C53.6317 27.1286 53.8508 27.1902 53.7412 27.6695C52.4403 27.6592 51.1393 27.6456 49.8349 27.6319H49.8383Z" fill="#87ADD8"/>
<path d="M54.0577 39.8371C53.6161 39.8371 53.171 39.8611 52.7294 39.8576L52.6883 39.594C52.6677 39.3373 52.9314 38.4437 52.7294 38.3033C52.5342 38.1664 48.5937 38.3684 47.9706 38.2828C47.6693 38.3478 47.8987 38.9846 47.9158 39.594L47.9055 39.8576C47.4741 39.8611 47.0428 39.8542 46.6114 39.8576L46.5703 39.594C46.6354 37.0263 46.8853 37.1872 49.1209 37.0605C52.0173 36.8928 54.5747 36.7114 54.0098 39.5084L54.0543 39.8371H54.0577Z" fill="#DFE0E0"/>
<path d="M52.7272 39.861C51.1215 39.8542 49.5125 39.8473 47.9068 39.861L47.9171 39.5974C47.9034 38.988 47.6706 38.3512 47.9718 38.2862C48.5949 38.3717 52.5355 38.1698 52.7306 38.3067C52.9326 38.4471 52.669 39.3406 52.6896 39.5974L52.7306 39.861H52.7272Z" fill="white"/>
<path d="M54.9382 27.2107C53.3086 25.6872 51.0353 24.2048 49.2995 22.7087C49.0873 22.6026 47.4337 22.5341 47.1153 22.5512C45.3726 22.6402 45.8417 22.7053 46.6017 23.6741C46.6188 23.6981 46.6394 23.7186 46.6599 23.7426C47.6014 24.9306 48.6422 26.0433 49.5871 27.2278" stroke="#203646" stroke-linecap="round" stroke-linejoin="round"/>
<path d="M46.4581 35.6157C46.4855 35.5986 46.5129 35.5815 46.5334 35.561C46.7389 35.3179 48.413 34.4791 49.108 31.9936C48.8957 31.6375 43.8288 31.7231 43.5309 31.819C42.8257 32.0449 42.4114 32.7022 41.8705 32.9214C41.6925 32.9933 39.7171 32.9864 39.5972 32.9042C38.9947 32.4934 40.5593 31.1342 40.4189 30.5077C39.3781 28.8404 38.2791 27.2074 37.2384 25.5435C36.4064 24.2186 36.0435 24.7321 39.8608 24.7218L43.3563 27.625C45.5166 27.7209 47.6804 27.6113 49.8406 27.6353C51.1416 27.649 52.4426 27.6593 53.747 27.673C54.1784 27.6764 54.596 27.7551 55.0206 27.762C57.5506 27.7928 61.005 26.8308 62.7476 29.2889C62.7682 29.3197 62.7956 29.3471 62.8161 29.3779C63.2543 30.0421 63.3605 31.3328 62.5011 31.7368C62.0732 31.9388 56.4619 31.6478 55.3321 31.8258L50.5254 35.5849L46.4616 35.6226L46.4581 35.6157Z" stroke="#203646" stroke-linecap="round" stroke-linejoin="round"/>
<path d="M54.0098 39.5118C54.5747 36.7148 52.0173 36.8962 49.1209 37.064C46.8853 37.1941 46.6354 37.0297 46.5703 39.5974" stroke="#213A4A" stroke-linecap="round" stroke-linejoin="round"/>
<path d="M58.5642 54.8085C62.3576 54.6511 61.933 54.2368 61.9741 48.4269C61.981 47.3862 61.9262 41.3401 61.6763 40.9087C60.8443 39.4708 59.5091 39.9022 58.2082 39.8542C57.407 39.8234 56.5991 39.8337 55.7945 39.8234C55.2159 39.8166 54.6374 39.8371 54.0588 39.8337C53.6171 39.8337 53.172 39.8577 52.7304 39.8542C51.1247 39.8474 49.5156 39.8405 47.91 39.8542C47.4786 39.8577 47.0472 39.8508 46.6159 39.8542C46.051 39.8577 45.4861 39.8474 44.9246 39.8542C44.0892 39.8645 43.2504 39.8303 42.4151 39.8542C40.6725 39.9056 39.0155 39.4331 38.656 41.7783C38.5704 42.3364 38.5909 52.5045 38.7073 53.0557C38.8409 53.6753 39.0668 54.1272 39.5975 54.5073C40.2103 54.9455 41.6277 54.7743 42.4082 54.8051C42.7711 54.8188 43.134 54.7983 43.4969 54.8051C43.9454 54.8154 44.3974 54.7983 44.8458 54.8051C48.4886 54.8462 52.1484 54.8222 55.7911 54.7846C56.1506 54.7812 56.5066 54.7983 56.8661 54.7948C57.3146 54.788 57.7631 54.8188 58.2082 54.8051C58.328 54.8017 58.4478 54.812 58.5676 54.8051L58.5642 54.8085Z" stroke="#213A4A" stroke-linecap="round" stroke-linejoin="round"/>
<path d="M47.9171 39.5974C47.9034 38.988 47.6706 38.3512 47.9718 38.2862C48.5949 38.3717 52.5355 38.1698 52.7306 38.3067C52.9326 38.4471 52.669 39.3406 52.6896 39.5974" stroke="#213A4A" stroke-linecap="round" stroke-linejoin="round"/>
<path d="M44.9269 40.1211C44.9269 40.3265 44.9269 40.5319 44.9235 40.7373C44.9064 45.3387 44.8584 49.9434 44.8379 54.5447" stroke="#213A4A" stroke-linecap="round" stroke-linejoin="round"/>
<path d="M55.7676 40.1211V54.4591" stroke="#213A4A" stroke-linecap="round" stroke-linejoin="round"/>
<path d="M58.2146 40.1211C58.2146 40.3265 58.2146 40.5319 58.2146 40.7339C58.2248 45.3352 58.2077 49.94 58.2146 54.5413" stroke="#213A4A" stroke-linecap="round" stroke-linejoin="round"/>
<path d="M42.3935 40.1211C42.3935 40.2957 42.3935 40.4737 42.3935 40.6483C42.3661 45.2805 42.414 49.9126 42.3935 54.5447" stroke="#213A4A" stroke-linecap="round" stroke-linejoin="round"/>
<path d="M54.6306 40.6931H45.9758C45.8114 40.6931 45.5136 40.6965 45.3835 40.6965C45.2979 40.5869 45.3321 40.2548 45.4519 40.2069C45.5718 40.1727 45.8251 40.1727 45.9758 40.1692H54.6306C54.7984 40.1624 55.0243 40.1555 55.1784 40.1418C55.3701 40.2685 55.2948 40.4739 55.3051 40.6896C55.3051 40.6896 55.0517 40.6896 54.6306 40.6896V40.6931Z" fill="white"/>
</svg>
