<svg width="11" height="25" viewBox="0 0 11 25" fill="none" xmlns="http://www.w3.org/2000/svg">
<path d="M10.787 10.3211C10.8003 11.7898 10.8849 13.2674 10.876 14.7317C10.8671 16.2272 10.9027 22.062 10.836 22.4492C10.6579 23.4729 10.4799 23.9001 9.40283 24.1538C9.09128 24.2295 6.58555 24.1761 6.33631 24.0381C5.14353 23.4017 5.31266 21.835 5.2637 20.6778L4.74297 20.62C3.17633 20.5799 1.10231 21.2787 0.47031 19.3827C0.256678 18.7418 0.283382 6.52021 0.425804 5.86151C0.906478 3.59611 2.84698 4.42394 4.96995 4.27262L5.41947 4.28152C5.46398 3.06648 4.9744 1.70457 6.33631 0.979111C6.63006 0.823337 9.70993 0.600803 10.4042 1.34407C11.1519 2.13629 10.7692 8.75445 10.787 10.3255V10.3211Z" fill="#949AAA"/>
</svg>
