<svg width="18" height="13" viewBox="0 0 18 13" fill="none" xmlns="http://www.w3.org/2000/svg">
<path fill-rule="evenodd" clip-rule="evenodd" d="M8.87327 2.97445C11.3477 2.97456 13.7275 3.89193 15.5208 5.53698C15.6559 5.66398 15.8717 5.66238 16.0047 5.53339L17.2956 4.27636C17.3629 4.21094 17.4005 4.12232 17.3999 4.03011C17.3993 3.9379 17.3607 3.84971 17.2926 3.78505C12.5857 -0.567347 5.16008 -0.567347 0.453208 3.78505C0.385025 3.84966 0.34634 3.93783 0.345711 4.03004C0.345082 4.12224 0.382562 4.21089 0.449858 4.27636L1.7411 5.53339C1.87402 5.66257 2.09003 5.66418 2.22499 5.53698C4.01853 3.89183 6.39861 2.97444 8.87327 2.97445ZM8.86994 7.17319C10.2203 7.17311 11.5225 7.68224 12.5235 8.60165C12.6589 8.73214 12.8722 8.72931 13.0042 8.59528L14.2849 7.2827C14.3523 7.21385 14.3897 7.12045 14.3888 7.0234C14.3878 6.92635 14.3485 6.83374 14.2797 6.7663C11.2315 3.8902 6.51097 3.8902 3.46277 6.7663C3.39391 6.83374 3.35463 6.92639 3.35372 7.02348C3.35282 7.12056 3.39037 7.21395 3.45796 7.2827L4.7383 8.59528C4.87028 8.72931 5.08355 8.73214 5.21894 8.60165C6.21926 7.68285 7.52043 7.17376 8.86994 7.17319ZM11.3815 9.95249C11.3834 10.0573 11.3465 10.1584 11.2796 10.2318L9.11401 12.674C9.05053 12.7458 8.96398 12.7862 8.87367 12.7862C8.78337 12.7862 8.69682 12.7458 8.63334 12.674L6.46741 10.2318C6.40051 10.1583 6.3637 10.0572 6.36568 9.95241C6.36767 9.84759 6.40827 9.74834 6.4779 9.67808C7.8609 8.37089 9.88644 8.37089 11.2694 9.67808C11.339 9.7484 11.3796 9.84768 11.3815 9.95249Z" fill="black"/>
</svg>
